<svg width="31" height="25" viewBox="0 0 31 25" fill="none" xmlns="http://www.w3.org/2000/svg">
<path d="M4.25469 5.62273C4.29196 5.25446 4.15153 4.89047 3.87654 4.64262L1.07542 1.26822V0.76416H9.7729L16.4956 15.5079L22.4059 0.76416H30.6973V1.26822L28.3023 3.56449C28.0958 3.72187 27.9934 3.98055 28.0362 4.23657V21.1085C27.9934 21.3646 28.0958 21.6232 28.3023 21.7806L30.6412 24.0769V24.581H18.8765V24.0769L21.2995 21.7246C21.5376 21.4866 21.5376 21.4166 21.5376 21.0525V7.41494L14.8009 24.5249H13.8905L6.0474 7.41494V18.8823C5.98201 19.3644 6.14213 19.8498 6.48158 20.1984L9.63284 24.0209V24.5249H0.697266V24.0209L3.84853 20.1984C4.1855 19.8492 4.33628 19.3606 4.25469 18.8823V5.62273Z" fill="white"/>
</svg>
