<svg width="40" height="40" viewBox="0 0 40 40" fill="none" xmlns="http://www.w3.org/2000/svg">
<path d="M35.0001 21.8667L33.5001 33.7334C33.4019 34.5464 33.0078 35.2948 32.393 35.8358C31.7782 36.3769 30.9857 36.6726 30.1668 36.6667H9.80015C8.98122 36.6726 8.18877 36.3769 7.57398 35.8358C6.95918 35.2948 6.56507 34.5464 6.46682 33.7334L5.00015 21.8667C4.9739 21.6329 4.99746 21.3962 5.06928 21.1721C5.14109 20.948 5.25954 20.7417 5.41682 20.5667C5.573 20.3889 5.76525 20.2464 5.98078 20.1487C6.19631 20.051 6.43017 20.0003 6.66682 20H33.3335C33.5701 20.0003 33.804 20.051 34.0195 20.1487C34.235 20.2464 34.4273 20.3889 34.5835 20.5667C34.7408 20.7417 34.8592 20.948 34.931 21.1721C35.0028 21.3962 35.0264 21.6329 35.0001 21.8667ZM30.0001 11.6667V10C30.0001 8.23193 29.2978 6.53624 28.0475 5.286C26.7973 4.03575 25.1016 3.33337 23.3335 3.33337H16.6668C14.8987 3.33337 13.203 4.03575 11.9528 5.286C10.7025 6.53624 10.0001 8.23193 10.0001 10V11.6667C10.0001 12.1087 10.1757 12.5327 10.4883 12.8452C10.8009 13.1578 11.2248 13.3334 11.6668 13.3334H28.3335C28.7755 13.3334 29.1994 13.1578 29.512 12.8452C29.8246 12.5327 30.0001 12.1087 30.0001 11.6667ZM16.6668 6.66671H23.3335C24.2175 6.66671 25.0654 7.0179 25.6905 7.64302C26.7129 8.66539 25.4947 10 24.0489 10H15.9514C14.5056 10 13.2874 8.66539 14.3098 7.64302C14.9349 7.0179 15.7828 6.66671 16.6668 6.66671Z" fill="url(#paint0_linear_447_1465)"/>
<path d="M35.0002 10H5.00016C4.55814 10 4.13421 10.1756 3.82165 10.4882C3.50909 10.8007 3.3335 11.2246 3.3335 11.6667V22.1333C3.33286 22.8342 3.55315 23.5174 3.96307 24.0859C4.37298 24.6544 4.95165 25.0792 5.61683 25.3L13.1502 27.8C17.5955 29.289 22.4049 29.289 26.8502 27.8L34.3835 25.3C35.0487 25.0792 35.6273 24.6544 36.0373 24.0859C36.4472 23.5174 36.6675 22.8342 36.6668 22.1333V11.6667C36.6668 11.2246 36.4912 10.8007 36.1787 10.4882C35.8661 10.1756 35.4422 10 35.0002 10Z" fill="url(#paint1_linear_447_1465)"/>
<path d="M23.3333 21.6667H16.6667C16.2246 21.6667 15.8007 21.4911 15.4882 21.1786C15.1756 20.866 15 20.4421 15 20C15 19.558 15.1756 19.1341 15.4882 18.8215C15.8007 18.509 16.2246 18.3334 16.6667 18.3334H23.3333C23.7754 18.3334 24.1993 18.509 24.5118 18.8215C24.8244 19.1341 25 19.558 25 20C25 20.4421 24.8244 20.866 24.5118 21.1786C24.1993 21.4911 23.7754 21.6667 23.3333 21.6667Z" fill="black"/>
<defs>
<linearGradient id="paint0_linear_447_1465" x1="20" y1="-2.5" x2="71.1815" y2="48.8968" gradientUnits="userSpaceOnUse">
<stop stop-color="#E0AA3E"/>
<stop offset="0.0989583" stop-color="#F9F295"/>
<stop offset="0.364468" stop-color="#E0AA3E"/>
<stop offset="0.65625" stop-color="#F9F295"/>
<stop offset="1" stop-color="#B88A44"/>
</linearGradient>
<linearGradient id="paint1_linear_447_1465" x1="16" y1="-27.5" x2="12.1934" y2="58.7955" gradientUnits="userSpaceOnUse">
<stop stop-color="#E0AA3E"/>
<stop offset="0.0989583" stop-color="#F9F295"/>
<stop offset="0.364468" stop-color="#E0AA3E"/>
<stop offset="0.65625" stop-color="#F9F295"/>
<stop offset="1" stop-color="#B88A44"/>
</linearGradient>
</defs>
</svg>
