<svg width="40" height="40" viewBox="0 0 40 40" fill="none" xmlns="http://www.w3.org/2000/svg">
<path d="M20.0002 36.6667C29.2049 36.6667 36.6668 29.2048 36.6668 20C36.6668 10.7953 29.2049 3.33337 20.0002 3.33337C10.7954 3.33337 3.3335 10.7953 3.3335 20C3.3335 29.2048 10.7954 36.6667 20.0002 36.6667Z" fill="url(#paint0_linear_447_1478)"/>
<path d="M22.1501 24.0333C21.8732 24.3283 21.5407 24.5656 21.1717 24.7315C20.8027 24.8974 20.4045 24.9886 20.0001 25C19.145 24.8887 18.3487 24.504 17.73 23.9033C17.1113 23.3026 16.7033 22.5181 16.5668 21.6666H16.6668C17.1088 21.6666 17.5327 21.491 17.8453 21.1785C18.1579 20.8659 18.3335 20.442 18.3335 20C18.3335 19.5579 18.1579 19.134 17.8453 18.8214C17.5327 18.5089 17.1088 18.3333 16.6668 18.3333H16.5668C16.7033 17.4818 17.1113 16.6973 17.73 16.0966C18.3487 15.4959 19.145 15.1112 20.0001 15C20.4397 15.018 20.8708 15.1265 21.2665 15.3186C21.6622 15.5107 22.0141 15.7824 22.3001 16.1166C22.4424 16.2938 22.6193 16.4399 22.8201 16.5462C23.0209 16.6524 23.2413 16.7165 23.4678 16.7345C23.6942 16.7525 23.922 16.724 24.137 16.6507C24.3521 16.5775 24.5499 16.461 24.7183 16.3085C24.8867 16.1561 25.0221 15.9708 25.1163 15.7641C25.2105 15.5573 25.2614 15.3335 25.266 15.1064C25.2705 14.8793 25.2286 14.6536 25.1427 14.4433C25.0569 14.2329 24.929 14.0424 24.7668 13.8833C24.1745 13.1974 23.4433 12.6451 22.6216 12.263C21.7998 11.8808 20.9063 11.6776 20.0001 11.6666C18.2549 11.7944 16.6103 12.5325 15.3547 13.7515C14.0992 14.9705 13.3128 16.5926 13.1335 18.3333C12.6914 18.3333 12.2675 18.5089 11.955 18.8214C11.6424 19.134 11.4668 19.5579 11.4668 20C11.4668 20.442 11.6424 20.8659 11.955 21.1785C12.2675 21.491 12.6914 21.6666 13.1335 21.6666C13.3128 23.4074 14.0992 25.0294 15.3547 26.2484C16.6103 27.4674 18.2549 28.2055 20.0001 28.3333C20.8442 28.3214 21.6777 28.143 22.4528 27.8083C23.2278 27.4737 23.9292 26.9895 24.5168 26.3833C24.6711 26.2279 24.7933 26.0436 24.8764 25.841C24.9595 25.6384 25.0018 25.4214 25.0011 25.2024C25.0003 24.9834 24.9564 24.7667 24.8719 24.5647C24.7873 24.3627 24.6639 24.1793 24.5085 24.025C24.3531 23.8707 24.1688 23.7485 23.9662 23.6654C23.7636 23.5823 23.5466 23.5399 23.3276 23.5407C23.1086 23.5415 22.8919 23.5854 22.6899 23.6699C22.4878 23.7544 22.3044 23.8779 22.1501 24.0333Z" fill="black"/>
<defs>
<linearGradient id="paint0_linear_447_1478" x1="5.5" y1="4" x2="29" y2="37" gradientUnits="userSpaceOnUse">
<stop stop-color="#E0AA3E"/>
<stop offset="0.0989583" stop-color="#F9F295"/>
<stop offset="0.364468" stop-color="#E0AA3E"/>
<stop offset="0.65625" stop-color="#F9F295"/>
<stop offset="1" stop-color="#B88A44"/>
</linearGradient>
</defs>
</svg>
