<svg width="24" height="24" viewBox="0 0 24 24" fill="none" xmlns="http://www.w3.org/2000/svg">
<path d="M4.00003 14L3.81003 12C3.70287 10.8597 3.83491 9.70949 4.19771 8.6231C4.56052 7.5367 5.14609 6.538 5.91697 5.69087C6.68786 4.84375 7.62707 4.16686 8.67454 3.70351C9.722 3.24015 10.8547 3.00054 12 3V3C13.1454 3.00054 14.278 3.24015 15.3255 3.70351C16.373 4.16686 17.3122 4.84375 18.0831 5.69087C18.854 6.538 19.4395 7.5367 19.8023 8.6231C20.1651 9.70949 20.2972 10.8597 20.19 12L20 14" stroke="black" stroke-width="2" stroke-linecap="round" stroke-linejoin="round"/>
<path d="M17 17V18C17.0303 18.4966 16.8635 18.9851 16.5359 19.3595C16.2083 19.7339 15.7462 19.9641 15.25 20H12" stroke="black" stroke-width="2" stroke-linecap="round" stroke-linejoin="round"/>
<path d="M4 14V13C4 12.2044 4.31607 11.4413 4.87868 10.8787C5.44129 10.3161 6.20435 10 7 10H8C8.26522 10 8.51957 10.1054 8.70711 10.2929C8.89464 10.4804 9 10.7348 9 11V16C9 16.2652 8.89464 16.5196 8.70711 16.7071C8.51957 16.8946 8.26522 17 8 17H7C6.20435 17 5.44129 16.6839 4.87868 16.1213C4.31607 15.5587 4 14.7956 4 14V14ZM20 14V13C20 12.2044 19.6839 11.4413 19.1213 10.8787C18.5587 10.3161 17.7956 10 17 10H16C15.7348 10 15.4804 10.1054 15.2929 10.2929C15.1054 10.4804 15 10.7348 15 11V16C15 16.2652 15.1054 16.5196 15.2929 16.7071C15.4804 16.8946 15.7348 17 16 17H17C17.7956 17 18.5587 16.6839 19.1213 16.1213C19.6839 15.5587 20 14.7956 20 14V14Z" stroke="#FFB525" stroke-width="2" stroke-linecap="round" stroke-linejoin="round"/>
</svg>
