<svg width="60" height="60" viewBox="0 0 60 60" fill="none" xmlns="http://www.w3.org/2000/svg">
<path d="M33.75 12L8.55 12C7.47587 12 6.44574 12.4267 5.68622 13.1862C4.9267 13.9457 4.5 14.9759 4.5 16.05V40.35C4.5 41.4241 4.9267 42.4543 5.68622 43.2138C6.44574 43.9733 7.47587 44.4 8.55 44.4H40.95C42.0241 44.4 43.0543 43.9733 43.8138 43.2138C44.5733 42.4543 45 41.4241 45 40.35V29.25C38.5598 28.3913 33.75 22.8977 33.75 16.4004V12ZM23.7375 26.175H25.7625C27.1052 26.0407 28.4462 26.4453 29.4905 27.2998C30.5348 28.1543 31.197 29.3886 31.3313 30.7313C31.4655 32.0739 31.0609 33.4149 30.2065 34.4593C29.6916 35.0886 29.0387 35.5791 28.3074 35.899C27.4802 36.2608 26.8203 37.0935 26.1819 37.7319C25.8021 38.1117 25.2871 38.325 24.75 38.325C24.2129 38.325 23.6979 38.1117 23.3181 37.7319C22.697 37.1108 22.013 36.3 21.1346 36.3H20.7C20.1629 36.3 19.6479 36.0867 19.2681 35.7069C18.8883 35.3271 18.675 34.8121 18.675 34.275C18.675 33.7379 18.8883 33.2229 19.2681 32.8431C19.6479 32.4633 20.1629 32.25 20.7 32.25H25.7625C26.031 32.25 26.2886 32.1433 26.4784 31.9534C26.6683 31.7636 26.775 31.506 26.775 31.2375C26.775 30.969 26.6683 30.7114 26.4784 30.5216C26.2886 30.3317 26.031 30.225 25.7625 30.225H23.7375C22.482 30.2263 21.2709 29.761 20.3392 28.9195C19.4075 28.078 18.8217 26.9204 18.6955 25.6713C18.5694 24.4222 18.9118 23.1708 19.6564 22.16C20.381 21.1764 21.436 20.4889 22.626 20.2224C22.6835 20.2095 22.725 20.1589 22.725 20.1C22.725 19.5629 22.9383 19.0479 23.3181 18.6681C23.6979 18.2883 24.2129 18.075 24.75 18.075C25.2871 18.075 25.8021 18.2883 26.1819 18.6681C26.803 19.2892 27.487 20.1 28.3654 20.1H28.8C29.3371 20.1 29.8521 20.3133 30.2319 20.6931C30.6117 21.0729 30.825 21.5879 30.825 22.125C30.825 22.6621 30.6117 23.1771 30.2319 23.5569C29.8521 23.9367 29.3371 24.15 28.8 24.15H23.7375C23.469 24.15 23.2114 24.2567 23.0216 24.4466C22.8317 24.6364 22.725 24.894 22.725 25.1625C22.725 25.431 22.8317 25.6886 23.0216 25.8784C23.2114 26.0683 23.469 26.175 23.7375 26.175ZM36.9 52.5H12.6C12.0629 52.5 11.5479 52.2867 11.1681 51.9069C10.7883 51.5271 10.575 51.0121 10.575 50.475C10.575 49.9379 10.7883 49.4229 11.1681 49.0431C11.5479 48.6633 12.0629 48.45 12.6 48.45H36.9C37.4371 48.45 37.9521 48.6633 38.3319 49.0431C38.7117 49.4229 38.925 49.9379 38.925 50.475C38.925 51.0121 38.7117 51.5271 38.3319 51.9069C37.9521 52.2867 37.4371 52.5 36.9 52.5Z" fill="url(#paint0_linear_950_1256)"/>
<path d="M57.8112 0C57.2306 0 56.6739 0.23665 56.2634 0.657888C55.8529 1.07913 55.6223 1.65045 55.6223 2.24617V5.12126C53.7818 3.57722 51.5363 2.6281 49.1699 2.39399C46.8036 2.15988 44.4227 2.6513 42.3286 3.80607C40.2345 4.96084 38.5212 6.72707 37.4055 8.8813C36.2899 11.0355 35.8219 13.4809 36.0609 15.9082C36.2999 18.3354 37.235 20.6353 38.7481 22.517C40.2611 24.3987 42.2841 25.7775 44.561 26.4791C46.8378 27.1807 49.2664 27.1734 51.5392 26.4583C53.8121 25.7432 55.8272 24.3523 57.3296 22.4617C57.5107 22.2316 57.6459 21.9672 57.7274 21.6835C57.8089 21.3998 57.8351 21.1024 57.8046 20.8083C57.7742 20.5143 57.6875 20.2292 57.5497 19.9695C57.4118 19.7097 57.2255 19.4804 57.0013 19.2946C56.7771 19.1087 56.5194 18.9701 56.243 18.8864C55.9665 18.8028 55.6767 18.7758 55.3902 18.8071C55.1036 18.8384 54.8258 18.9273 54.5727 19.0688C54.3196 19.2102 54.0961 19.4014 53.915 19.6315C53.194 20.5324 52.2842 21.2548 51.2534 21.7448C50.2226 22.2348 49.0973 22.4799 47.9614 22.4617C46.7097 22.443 45.4816 22.1099 44.3844 21.4914C43.2873 20.873 42.3545 19.9881 41.6677 18.9141C40.981 17.8401 40.5611 16.6098 40.4449 15.3308C40.3287 14.0517 40.5197 12.763 41.0011 11.5772C41.4826 10.3915 42.2398 9.34485 43.2067 8.52892C44.1735 7.71299 45.3204 7.1526 46.5472 6.89679C47.7739 6.64098 49.043 6.69754 50.2435 7.06152C51.4439 7.42549 52.5392 8.0858 53.4335 8.98467H49.0558C48.4753 8.98467 47.9185 9.22132 47.508 9.64256C47.0976 10.0638 46.867 10.6351 46.867 11.2308C46.867 11.8266 47.0976 12.3979 47.508 12.8191C47.9185 13.2404 48.4753 13.477 49.0558 13.477H57.8112C58.3917 13.477 58.9484 13.2404 59.3589 12.8191C59.7694 12.3979 60 11.8266 60 11.2308V2.24617C60 1.65045 59.7694 1.07913 59.3589 0.657888C58.9484 0.23665 58.3917 0 57.8112 0Z" fill="black"/>
<defs>
<linearGradient id="paint0_linear_950_1256" x1="4.0948" y1="-4.20005" x2="52.6948" y2="52.905" gradientUnits="userSpaceOnUse">
<stop stop-color="#E0AA3E"/>
<stop offset="0.0989583" stop-color="#F9F295"/>
<stop offset="0.364468" stop-color="#E0AA3E"/>
<stop offset="0.65625" stop-color="#F9F295"/>
<stop offset="1" stop-color="#B88A44"/>
</linearGradient>
</defs>
</svg>
