<svg width="60" height="60" viewBox="0 0 60 60" fill="none" xmlns="http://www.w3.org/2000/svg">
<path d="M49.9997 45.0004V45.0004C51.2336 45.0083 52.4997 45.8711 52.4997 47.1051V50.0004C52.4997 51.3265 51.9729 52.5983 51.0352 53.536C50.0976 54.4736 48.8258 55.0004 47.4997 55.0004H12.4997C10.5106 55.0004 8.60292 54.2103 7.1964 52.8037C5.78988 51.3972 4.9997 49.4895 4.9997 47.5004V12.5004C4.96104 12.0847 4.96104 11.6662 4.9997 11.2504C5.34783 9.45773 6.31979 7.84634 7.74312 6.70219C9.16644 5.55803 10.9491 4.95512 12.7747 5.00043H39.9997C41.3258 5.00043 42.5976 5.52721 43.5352 6.46489C44.4729 7.40257 44.9997 8.67434 44.9997 10.0004V10.0004C44.9997 11.3811 43.8804 12.5004 42.4997 12.5004H41.2497C40.5593 12.5004 39.9997 11.9408 39.9997 11.2504V11.2504C39.9997 10.5601 39.4401 10.0004 38.7497 10.0004H12.7747C12.1467 9.96949 11.5272 10.1567 11.0215 10.5303C10.5242 10.8977 10.1669 11.423 10.0077 12.0197C10.0023 12.0401 9.99859 12.061 9.99682 12.082C9.98506 12.2213 9.98603 12.3613 9.9997 12.5004L-nan -nanL-nan -nanL9.9997 12.5004C9.99966 13.0963 10.2124 13.6726 10.5997 14.1254C10.8344 14.3998 11.1258 14.6202 11.4538 14.7712C11.7818 14.9222 12.1386 15.0005 12.4997 15.0004H47.4997C48.8258 15.0004 50.0976 15.5272 51.0352 16.4649C51.9729 17.4026 52.4997 18.6743 52.4997 20.0004V22.8958C52.4997 24.1297 51.2336 24.9926 49.9997 25.0004V25.0004H42.4997C40.5106 25.0004 38.6029 25.7906 37.1964 27.1971C35.7899 28.6036 34.9997 30.5113 34.9997 32.5004V37.5004C34.9997 39.4895 35.7899 41.3972 37.1964 42.8037C38.6029 44.2103 40.5106 45.0004 42.4997 45.0004H49.9997ZM-nan -nanL52.4997 28.1754C51.7401 27.7348 50.8779 27.502 49.9997 27.5004H42.4997C41.1736 27.5004 39.9019 28.0272 38.9642 28.9649C38.0265 29.9026 37.4997 31.1743 37.4997 32.5004V37.5004C37.4997 38.8265 38.0265 40.0983 38.9642 41.036C39.9019 41.9736 41.1736 42.5004 42.4997 42.5004H49.9997C51.3258 42.5004 52.5976 41.9736 53.5352 41.036C54.4729 40.0983 54.9997 38.8265 54.9997 37.5004V32.5004C54.9988 31.6236 54.7673 30.7625 54.3286 30.0033C53.8898 29.2442 53.259 28.6138 52.4997 28.1754L-nan -nanL-nan -nanZ" fill="url(#paint0_linear_2142_3212)"/>
<path d="M52.5 28.175C51.7404 27.7344 50.8782 27.5016 50 27.5H42.5C41.1739 27.5 39.9021 28.0268 38.9645 28.9645C38.0268 29.9021 37.5 31.1739 37.5 32.5V37.5C37.5 38.8261 38.0268 40.0979 38.9645 41.0355C39.9021 41.9732 41.1739 42.5 42.5 42.5H50C51.3261 42.5 52.5978 41.9732 53.5355 41.0355C54.4732 40.0979 55 38.8261 55 37.5V32.5C54.9991 31.6232 54.7676 30.762 54.3288 30.0029C53.89 29.2438 53.2593 28.6134 52.5 28.175Z" fill="#232323"/>
<defs>
<linearGradient id="paint0_linear_2142_3212" x1="4.47017" y1="-15.003" x2="64.4679" y2="55.5319" gradientUnits="userSpaceOnUse">
<stop stop-color="#E0AA3E"/>
<stop offset="0.0989583" stop-color="#F9F295"/>
<stop offset="0.364468" stop-color="#E0AA3E"/>
<stop offset="0.65625" stop-color="#F9F295"/>
<stop offset="1" stop-color="#B88A44"/>
</linearGradient>
</defs>
</svg>
