<svg width="20" height="20" viewBox="0 0 20 20" fill="none" xmlns="http://www.w3.org/2000/svg">
<g clip-path="url(#clip0_116_515)">
<path fill-rule="evenodd" clip-rule="evenodd" d="M10 0C7.28464 0 6.94324 0.0119095 5.87535 0.0595474C4.81144 0.107185 4.08496 0.277888 3.44978 0.524017C2.79079 0.778087 2.23502 1.12346 1.67924 1.67924C1.12346 2.23501 0.782057 2.79476 0.524018 3.44978C0.277888 4.08495 0.107185 4.81143 0.0595475 5.87932C0.0119095 6.94323 0 7.28464 0 10C0 12.7154 0.0119095 13.0568 0.0595475 14.1247C0.107185 15.1886 0.277888 15.915 0.524018 16.5542C0.778087 17.2132 1.12346 17.769 1.67924 18.3247C2.23502 18.8805 2.79476 19.2219 3.44978 19.48C4.08496 19.7261 4.81144 19.8968 5.87932 19.9444C6.94721 19.9921 7.28464 20.004 10.004 20.004C12.7233 20.004 13.0607 19.9921 14.1286 19.9444C15.1925 19.8968 15.919 19.7261 16.5582 19.48C17.2172 19.2259 17.7729 18.8805 18.3287 18.3247C18.8845 17.769 19.2259 17.2092 19.4839 16.5542C19.7301 15.919 19.9008 15.1925 19.9484 14.1247C19.996 13.0568 20.008 12.7193 20.008 10C20.008 7.28067 19.996 6.94323 19.9484 5.87535C19.9008 4.81143 19.7301 4.08495 19.4839 3.44581C19.2299 2.78682 18.8845 2.23104 18.3287 1.67527C17.7729 1.11949 17.2132 0.778087 16.5582 0.520048C15.923 0.273918 15.1965 0.103216 14.1286 0.0555776C13.0568 0.0119095 12.7154 0 10 0ZM10 4.867C7.16554 4.867 4.86304 7.16553 4.86304 10.004C4.86304 12.8424 7.16157 15.1409 10 15.1409C12.8384 15.1409 15.137 12.8424 15.137 10.004C15.137 7.16553 12.8384 4.867 10 4.867ZM10 13.3346C8.158 13.3346 6.66534 11.842 6.66534 9.99999C6.66534 8.15799 8.158 6.66534 10 6.66534C11.842 6.66534 13.3347 8.15799 13.3347 9.99999C13.3347 11.842 11.842 13.3346 10 13.3346ZM16.5384 4.66056C16.5384 5.32269 16.0016 5.85945 15.3395 5.85945C14.6774 5.85945 14.1406 5.32269 14.1406 4.66056C14.1406 3.99843 14.6774 3.46167 15.3395 3.46167C16.0016 3.46167 16.5384 3.99843 16.5384 4.66056Z" fill="black"/>
</g>
<defs>
<clipPath id="clip0_116_515">
<rect width="20" height="20" fill="white"/>
</clipPath>
</defs>
</svg>
