<svg width="24" height="24" viewBox="0 0 24 24" fill="none" xmlns="http://www.w3.org/2000/svg">
<path d="M15.8701 11C17.1317 11.3921 18.2248 12.1968 18.9738 13.285C19.7228 14.3732 20.0843 15.6816 20.0001 17H16.0001" stroke="#FFB525" stroke-width="2" stroke-linecap="round" stroke-linejoin="round"/>
<path d="M8.13002 11C6.86847 11.3921 5.77536 12.1968 5.02632 13.285C4.27729 14.3732 3.91582 15.6816 4.00002 17H8.00002" stroke="#FFB525" stroke-width="2" stroke-linecap="round" stroke-linejoin="round"/>
<path d="M15.87 18C16.74 8 14 4.36 12.65 3.24C12.4688 3.08508 12.2383 2.99994 12 2.99994C11.7616 2.99994 11.5311 3.08508 11.35 3.24C9.99997 4.36 7.25997 8 8.12997 18H15.87ZM15 20V18H8.99997V20C8.99997 20.2652 9.10533 20.5196 9.29286 20.7071C9.4804 20.8946 9.73475 21 9.99997 21H14C14.2652 21 14.5195 20.8946 14.7071 20.7071C14.8946 20.5196 15 20.2652 15 20Z" stroke="black" stroke-width="2" stroke-linecap="round" stroke-linejoin="round"/>
</svg>
