<svg width="40" height="41" viewBox="0 0 40 41" fill="none" xmlns="http://www.w3.org/2000/svg">
<path d="M19.1668 4.32869V20.3454L6.93344 23.6787L3.71678 24.562C3.19514 22.1952 3.19598 19.7431 3.71923 17.3766C4.24248 15.0102 5.27555 12.7863 6.74642 10.86C8.2173 8.93376 10.0906 7.35147 12.2357 6.22345C14.3808 5.09542 16.7461 4.44881 19.1668 4.32869ZM20.8334 4.32869V20.6287L30.0001 29.812L32.3668 32.1787C34.4903 29.8396 35.9053 26.9451 36.4469 23.8326C36.9884 20.7201 36.6341 17.5178 35.4253 14.599C34.2166 11.6801 32.2031 9.16491 29.6196 7.34655C27.0361 5.5282 23.989 4.48158 20.8334 4.32869ZM28.8168 30.9954L19.7668 21.9454L7.38344 25.2787L4.16678 26.162C5.03222 28.8008 6.5433 31.1815 8.56272 33.0878C10.5821 34.994 13.0459 36.3655 15.7301 37.0775C18.4143 37.7896 21.2339 37.8196 23.9327 37.1649C26.6315 36.5102 29.1239 35.1915 31.1834 33.3287L28.8168 30.9954Z" fill="#232323"/>
</svg>
