<svg width="250" height="220" viewBox="0 0 250 220" fill="none" xmlns="http://www.w3.org/2000/svg">
<rect width="250" height="220" rx="20" fill="url(#paint0_radial_955_797)"/>
<mask id="mask0_955_797" style="mask-type:alpha" maskUnits="userSpaceOnUse" x="0" y="0" width="250" height="220">
<rect width="250" height="220" rx="20" fill="url(#paint1_linear_955_797)"/>
</mask>
<g mask="url(#mask0_955_797)">
<path d="M-23.1032 69.0357C22.5052 142.938 285.24 180.129 298.666 72.9947L280.975 214.165L-34.7215 161.748L-23.1032 69.0357Z" fill="url(#paint2_linear_955_797)"/>
<path d="M647.509 -1.90445C607.026 141.296 63.9078 330.231 -28.2258 -32.8869L29.0204 286.101L685.332 147.162L647.509 -1.90445Z" fill="url(#paint3_linear_955_797)"/>
<path d="M659.531 1.77776C691.11 126.237 22.8493 348.813 -73.7034 -31.7217L11.3766 303.597L699.167 157.994L659.531 1.77776Z" fill="url(#paint4_linear_955_797)"/>
<path d="M662.183 -27.9535C707.673 151.333 6.52871 293.873 -37.5432 120.176L11.4473 313.258L711.173 165.129L662.183 -27.9535Z" fill="url(#paint5_linear_955_797)"/>
</g>
<defs>
<radialGradient id="paint0_radial_955_797" cx="0" cy="0" r="1" gradientUnits="userSpaceOnUse" gradientTransform="translate(124.636 -146.419) rotate(90) scale(277.725 181.498)">
<stop stop-color="#625B4E"/>
<stop offset="1" stop-color="#232323"/>
</radialGradient>
<linearGradient id="paint1_linear_955_797" x1="243.807" y1="212.85" x2="112.409" y2="27.4953" gradientUnits="userSpaceOnUse">
<stop stop-color="#494949"/>
<stop offset="1" stop-color="#C2C2C2"/>
</linearGradient>
<linearGradient id="paint2_linear_955_797" x1="27.629" y1="69.7528" x2="729.343" y2="178.131" gradientUnits="userSpaceOnUse">
<stop stop-color="#E0AA3E"/>
<stop offset="0.0989583" stop-color="#F9F295"/>
<stop offset="0.364468" stop-color="#E0AA3E"/>
<stop offset="0.65625" stop-color="#F9F295"/>
<stop offset="1" stop-color="#B88A44"/>
</linearGradient>
<linearGradient id="paint3_linear_955_797" x1="-244.824" y1="-42.548" x2="307.977" y2="173.948" gradientUnits="userSpaceOnUse">
<stop stop-color="#CD9A32"/>
<stop offset="1" stop-color="#FFF9A6"/>
</linearGradient>
<linearGradient id="paint4_linear_955_797" x1="-558.861" y1="94.5934" x2="1404.78" y2="-44.6048" gradientUnits="userSpaceOnUse">
<stop stop-color="#E0AA3E"/>
<stop offset="0.0989583" stop-color="#F9F295"/>
<stop offset="0.364468" stop-color="#E0AA3E"/>
<stop offset="0.65625" stop-color="#F9F295"/>
<stop offset="1" stop-color="#B88A44"/>
</linearGradient>
<linearGradient id="paint5_linear_955_797" x1="-316.298" y1="173.367" x2="874.257" y2="359.318" gradientUnits="userSpaceOnUse">
<stop stop-color="#E0AA3E"/>
<stop offset="0.165682" stop-color="#F9F295"/>
<stop offset="0.48125" stop-color="#E0AA3E"/>
<stop offset="0.65625" stop-color="#F9F295"/>
<stop offset="1" stop-color="#B88A44"/>
</linearGradient>
</defs>
</svg>
