<svg width="107" height="40" viewBox="0 0 107 40" fill="none" xmlns="http://www.w3.org/2000/svg">
<path fill-rule="evenodd" clip-rule="evenodd" d="M55.8195 13.7072C54.9289 12.9581 53.4089 12.584 51.2586 12.584H46.4087V27.5719H50.0352V22.8745H51.6597C53.6313 22.8745 55.0772 22.4405 55.9973 21.5718C57.0337 20.5987 57.5552 19.3028 57.5552 17.685C57.5552 16.0074 56.9764 14.6812 55.8195 13.7072ZM51.5695 19.4831H50.0352V15.9754H51.4137C53.0904 15.9754 53.9288 16.5635 53.9288 17.7398C53.9288 18.9009 53.1418 19.4822 51.5695 19.4822V19.4831ZM63.7609 12.5832H59.9794V27.571H68.144V24.1788H63.7609V12.5832ZM75.5528 12.5832L69.6126 27.571H73.684L74.4625 25.3921H79.6242L80.3362 27.571H84.4531L78.555 12.5832H75.5528ZM75.5082 22.358L77.0661 17.2351L78.5996 22.358H75.5073H75.5082ZM86.3421 27.571H90.1245V12.5832H86.3421V27.571ZM104.809 15.3923C104.331 14.6996 103.718 14.1111 103.006 13.6625C101.864 12.9429 100.306 12.584 98.3338 12.584H93.3508V27.571H99.1797C101.286 27.571 102.976 26.8826 104.252 25.5042C105.528 24.1266 106.165 22.2981 106.165 20.0206C106.165 18.2091 105.712 16.6663 104.808 15.3923H104.809ZM98.7568 24.178H97.1331V15.9762H98.7795C99.9364 15.9762 100.825 16.3385 101.449 17.0606C102.072 17.7827 102.384 18.8073 102.384 20.1335C102.384 22.8298 101.175 24.178 98.7568 24.178ZM15.7032 0L3.44617 3.21025L0.0682493 15.5364L4.29297 19.874L0 24.14L3.17907 36.5201L15.3831 39.9301L19.6769 35.6632L23.9016 40L36.1587 36.7898L39.5357 24.4627L35.3119 20.1268L39.6048 15.8608L36.4258 3.47987L24.2201 0.0699345L19.928 4.33594L15.7032 0ZM8.18149 5.58128L14.6382 3.88937L17.4617 6.78786L13.344 10.8794L8.18149 5.58128ZM22.3554 6.82662L25.2244 3.97615L31.6534 5.77254L26.4066 10.9856L22.3554 6.82662ZM3.93655 14.5245L5.71525 8.03236L10.8761 13.3305L6.75921 17.4221L3.93655 14.5236V14.5245ZM28.8324 13.4771L34.0792 8.26238L35.7525 14.784L32.8844 17.6353L28.8324 13.4771ZM15.7706 13.3701L19.8884 9.27854L23.9387 13.4375L19.8218 17.5291L15.7706 13.3701ZM9.1867 19.9128L13.3036 15.8212L17.3564 19.9802L13.2378 24.0718L9.1867 19.9128ZM22.2493 20.0198L26.3661 15.9282L30.4173 20.0872L26.2996 24.1788L22.2493 20.0198ZM3.85061 25.216L6.72045 22.3639L10.7708 26.5237L5.52567 31.7359L3.85061 25.216ZM15.6645 26.5625L19.7822 22.4709L23.8333 26.6299L19.7165 30.7215L15.6645 26.5625ZM28.7262 26.6703L32.8439 22.5787L35.6674 25.4764L33.8896 31.9685L28.7262 26.6703ZM7.95147 34.2283L13.1974 29.0135L17.2502 33.1725L14.3804 36.0247L7.95147 34.2275V34.2283ZM22.1431 33.2121L26.26 29.1206L31.4217 34.4196L24.9658 36.1106L22.1431 33.2121Z" fill="#111111"/>
</svg>
