<svg width="20" height="20" viewBox="0 0 20 20" fill="none" xmlns="http://www.w3.org/2000/svg">
<path d="M16 16L12.6244 12.6244M14.4444 8.22222C14.4444 9.45286 14.0795 10.6559 13.3958 11.6791C12.7121 12.7023 11.7403 13.4999 10.6034 13.9708C9.4664 14.4418 8.21532 14.565 7.00833 14.3249C5.80134 14.0848 4.69264 13.4922 3.82245 12.622C2.95226 11.7518 2.35965 10.6431 2.11956 9.43612C1.87948 8.22912 2.0027 6.97804 2.47364 5.84108C2.94459 4.70412 3.7421 3.73234 4.76534 3.04863C5.78858 2.36493 6.99159 2 8.22222 2C9.87246 2 11.4551 2.65555 12.622 3.82245C13.7889 4.98934 14.4444 6.57199 14.4444 8.22222Z" stroke="#B9B9B9" stroke-width="2" stroke-linecap="round" stroke-linejoin="round"/>
</svg>
