<svg width="24" height="24" viewBox="0 0 24 24" fill="none" xmlns="http://www.w3.org/2000/svg">
<path d="M9 11H8M20 19H4C3.73478 19 3.48043 18.8946 3.29289 18.7071C3.10536 18.5196 3 18.2652 3 18V4C3 3.73478 3.10536 3.48043 3.29289 3.29289C3.48043 3.10536 3.73478 3 4 3H20C20.2652 3 20.5196 3.10536 20.7071 3.29289C20.8946 3.48043 21 3.73478 21 4V18C21 18.2652 20.8946 18.5196 20.7071 18.7071C20.5196 18.8946 20.2652 19 20 19ZM8 19H6V21H8V19ZM16 21H18V19H16V21ZM15 11C15 10.4067 14.8241 9.82664 14.4944 9.33329C14.1648 8.83994 13.6962 8.45542 13.1481 8.22836C12.5999 8.0013 11.9967 7.94189 11.4147 8.05764C10.8328 8.1734 10.2982 8.45912 9.87868 8.87868C9.45912 9.29824 9.1734 9.83279 9.05764 10.4147C8.94189 10.9967 9.0013 11.5999 9.22836 12.1481C9.45542 12.6962 9.83994 13.1648 10.3333 13.4944C10.8266 13.8241 11.4067 14 12 14C12.7956 14 13.5587 13.6839 14.1213 13.1213C14.6839 12.5587 15 11.7956 15 11ZM12 8V7V8ZM15 11H16H15ZM12 14V15V14Z" stroke="black" stroke-width="2" stroke-linecap="round" stroke-linejoin="round"/>
<path d="M15 11C15 10.4067 14.8241 9.82664 14.4944 9.33329C14.1648 8.83994 13.6962 8.45542 13.1481 8.22836C12.5999 8.0013 11.9967 7.94189 11.4147 8.05764C10.8328 8.1734 10.2982 8.45912 9.87868 8.87868C9.45912 9.29824 9.1734 9.83279 9.05764 10.4147C8.94189 10.9967 9.0013 11.5999 9.22836 12.1481C9.45542 12.6962 9.83994 13.1648 10.3333 13.4944C10.8266 13.8241 11.4067 14 12 14M15 11C15 11.7956 14.6839 12.5587 14.1213 13.1213C13.5587 13.6839 12.7956 14 12 14M15 11H16M12 14V15M12 8V7M9 11H8" stroke="#FFB525" stroke-width="2" stroke-linecap="round" stroke-linejoin="round"/>
</svg>
