<svg width="96" height="40" viewBox="0 0 96 40" fill="none" xmlns="http://www.w3.org/2000/svg">
<g clip-path="url(#clip0_480_605)">
<path d="M6.7251 15.6048C6.7251 14.5682 7.5757 14.1694 8.98475 14.1694C11.0048 14.1694 13.5566 14.7809 15.5768 15.8707V9.62392C13.3706 8.74679 11.1909 8.40121 8.98475 8.40121C3.58852 8.40121 0 11.2189 0 15.924C0 23.2603 10.1009 22.0908 10.1009 25.2542C10.1009 26.4767 9.03783 26.8755 7.54915 26.8755C5.34296 26.8755 2.52523 25.9717 0.292315 24.749V31.0754C2.76447 32.1387 5.26316 32.5904 7.54915 32.5904C13.0781 32.5904 16.8793 29.8527 16.8793 25.0945C16.8528 17.1733 6.7251 18.5819 6.7251 15.6048ZM24.6942 3.08497L18.2084 4.46711L18.1818 25.759C18.1818 29.6933 21.1324 32.5904 25.0665 32.5904C27.2462 32.5904 28.841 32.1918 29.7182 31.7133V26.3173C28.8677 26.6628 24.6677 27.8855 24.6677 23.9514V14.515H29.7182V8.85314H24.6677L24.6942 3.08497ZM37.9852 10.8201L37.5598 8.85314H31.8182V32.112H38.4637V16.3492C40.0318 14.3025 42.6901 14.6746 43.5141 14.9669V8.85314C42.6635 8.5341 39.5535 7.94928 37.9852 10.8201ZM45.1355 8.85314H51.8075V32.112H45.1355V8.85314ZM45.1355 6.83292L51.8075 5.39751V0.00146484L45.1355 1.41033V6.83273V6.83292ZM65.6831 8.40121C63.0781 8.40121 61.4034 9.62392 60.4732 10.4747L60.1275 8.8266H54.2797V39.8205L60.925 38.4119L60.9517 30.8892C61.9086 31.5804 63.3173 32.5639 65.6566 32.5639C70.4147 32.5639 74.7475 28.7361 74.7475 20.3099C74.721 12.6011 70.3349 8.40121 65.6831 8.40121ZM64.0883 26.7159C62.52 26.7159 61.5894 26.1578 60.9517 25.4667L60.925 15.6048C61.6161 14.834 62.5731 14.3025 64.0883 14.3025C66.5072 14.3025 68.1818 17.0137 68.1818 20.4958C68.1818 24.0578 66.5337 26.7159 64.0883 26.7159ZM95.6938 20.5756C95.6938 13.7707 92.3976 8.40121 86.0979 8.40121C79.7712 8.40121 75.9435 13.7709 75.9435 20.5225C75.9435 28.5234 80.4626 32.5639 86.9483 32.5639C90.1116 32.5639 92.5039 31.8462 94.3115 30.8362V25.5197C92.5041 26.4236 90.4306 26.9819 87.799 26.9819C85.2205 26.9819 82.9345 26.078 82.6422 22.9414H95.6407C95.6407 22.5957 95.6938 21.2135 95.6938 20.5756ZM82.5624 18.0504C82.5624 15.0467 84.3967 13.7973 86.0713 13.7973C87.6927 13.7973 89.4206 15.0467 89.4206 18.0504H82.5624Z" fill="#6772E5"/>
</g>
<defs>
<clipPath id="clip0_480_605">
<rect width="95.6938" height="40" fill="white"/>
</clipPath>
</defs>
</svg>
