<svg width="176" height="40" viewBox="0 0 176 40" fill="none" xmlns="http://www.w3.org/2000/svg">
<g clip-path="url(#clip0_480_600)">
<path d="M22.9942 14.856H33.5509V33.5509H0V14.856H10.5566V24.1843H22.9559V14.856H22.9942ZM58.6948 24.4146C58.6948 27.6008 56.6219 29.4434 53.7428 29.4434C50.9405 29.4434 48.8292 27.5624 48.8292 24.4146V9.3666H44.1459V24.3762C44.1459 30.2879 48.3685 34.0499 53.7812 34.0499C59.2322 34.0499 63.4165 30.2879 63.4165 24.3762V9.3666H58.7332V24.4146H58.6948ZM75.4702 16.3148C73.666 16.3148 71.6699 17.0825 70.6334 18.8484V16.7754H66.2572V33.5509H70.7869V23.8772C70.7869 21.9194 71.9386 20.3839 73.9347 20.3839C76.1228 20.3839 77.0441 21.8426 77.0441 23.7236V33.5125H81.5739V22.9559C81.5355 19.2706 79.6161 16.3148 75.4702 16.3148ZM92.0921 23.3781C92.0921 23.3781 90.5566 23.071 89.5969 22.8791C88.6372 22.6871 88.0614 22.1881 88.0614 21.382C88.0614 20.4223 88.9059 19.7313 90.096 19.7313C91.785 19.7313 92.4376 20.5758 92.5912 21.6123H96.5067C96.4683 19.309 94.6641 16.3148 90.1727 16.3148C86.5643 16.3148 83.9155 18.81 83.9155 21.8042C83.9155 24.1459 85.3743 26.1036 88.5988 26.7946L90.9021 27.2937C92.2073 27.5624 92.7063 28.1766 92.7063 28.9443C92.7063 29.8273 91.9002 30.595 90.4031 30.595C88.5988 30.595 87.6008 29.5585 87.3704 28.3685H83.3397C83.5701 30.8637 85.3743 34.0499 90.4415 34.0499C94.8176 34.0499 97.0441 31.2476 97.0441 28.5221C97.0825 26.0653 95.3935 24.0691 92.0921 23.3781ZM116.353 25.1056C116.353 30.1727 113.167 33.9347 108.445 33.9347C106.142 33.9347 104.415 33.0134 103.608 31.9002V40H99.0787V16.7754H103.455V18.8484C104.223 17.5432 106.065 16.3916 108.599 16.3916C113.512 16.3916 116.353 20.1536 116.353 25.1056ZM111.9 25.144C111.9 22.1881 110.058 20.4607 107.754 20.4607C105.451 20.4607 103.57 22.1881 103.57 25.144C103.57 28.0998 105.451 29.8656 107.754 29.8656C110.058 29.8656 111.9 28.1382 111.9 25.144ZM138.004 16.7754H142.38V33.5509H137.85V31.4779C137.083 32.8215 135.317 33.9347 133.013 33.9347C128.292 33.9347 125.106 30.1727 125.106 25.1056C125.106 20.1152 127.946 16.3916 132.821 16.3916C135.355 16.3916 137.159 17.5432 137.965 18.8484V16.7754H138.004ZM137.927 25.144C137.927 22.1881 136.046 20.4607 133.743 20.4607C131.44 20.4607 129.597 22.1881 129.597 25.144C129.597 28.1382 131.44 29.8656 133.743 29.8656C136.046 29.8656 137.927 28.0998 137.927 25.144ZM118.464 33.5125H122.994V9.3666H118.464V33.5125ZM169.29 16.3148C167.678 16.3148 165.835 16.8522 164.76 18.1574V9.3666H160.23V33.5125H164.76V23.6852C164.875 21.8426 165.988 20.4223 167.908 20.4223C170.096 20.4223 171.017 21.881 171.017 23.762V33.5509H175.547V22.9942C175.509 19.2706 173.551 16.3148 169.29 16.3148ZM153.167 23.3781C153.167 23.3781 151.631 23.071 150.672 22.8791C149.712 22.6871 149.136 22.1881 149.136 21.382C149.136 20.4223 149.981 19.7313 151.171 19.7313C152.86 19.7313 153.512 20.5758 153.666 21.6123H157.582C157.543 19.309 155.739 16.3148 151.248 16.3148C147.639 16.3148 144.99 18.81 144.99 21.8042C144.99 24.1459 146.449 26.1036 149.674 26.7946L151.977 27.2937C153.282 27.5624 153.781 28.1766 153.781 28.9443C153.781 29.8273 152.975 30.595 151.478 30.595C149.674 30.595 148.676 29.5585 148.445 28.3685H144.415C144.645 30.8637 146.449 34.0499 151.516 34.0499C155.893 34.0499 158.119 31.2476 158.119 28.5221C158.157 26.0653 156.468 24.0691 153.167 23.3781ZM22.9942 0H10.5566V9.3666H22.9559V0H22.9942Z" fill="black"/>
</g>
<defs>
<clipPath id="clip0_480_600">
<rect width="175.509" height="40" fill="white"/>
</clipPath>
</defs>
</svg>
