<svg width="40" height="41" viewBox="0 0 40 41" fill="none" xmlns="http://www.w3.org/2000/svg">
<path d="M29.9987 37.612H9.9987C9.55667 37.612 9.13275 37.4364 8.82019 37.1238C8.50763 36.8113 8.33203 36.3873 8.33203 35.9453C8.33203 35.5033 8.50763 35.0794 8.82019 34.7668C9.13275 34.4542 9.55667 34.2786 9.9987 34.2786H29.9987C30.4407 34.2786 30.8646 34.4542 31.1772 34.7668C31.4898 35.0794 31.6654 35.5033 31.6654 35.9453C31.6654 36.3873 31.4898 36.8113 31.1772 37.1238C30.8646 37.4364 30.4407 37.612 29.9987 37.612ZM33.332 4.27864H6.66536C5.78131 4.27864 4.93346 4.62983 4.30834 5.25496C3.68322 5.88008 3.33203 6.72792 3.33203 7.61198V27.612C3.33203 28.496 3.68322 29.3439 4.30834 29.969C4.93346 30.5941 5.78131 30.9453 6.66536 30.9453H33.332C34.2161 30.9453 35.0639 30.5941 35.6891 29.969C36.3142 29.3439 36.6654 28.496 36.6654 27.612V7.61198C36.6654 6.72792 36.3142 5.88008 35.6891 5.25496C35.0639 4.62983 34.2161 4.27864 33.332 4.27864Z" fill="url(#paint0_linear_2109_2646)"/>
<path d="M20.8333 15.9453H19.1666C18.9456 15.9453 18.7337 15.8575 18.5774 15.7012C18.4211 15.545 18.3333 15.333 18.3333 15.112C18.3333 14.891 18.4211 14.679 18.5774 14.5227C18.7337 14.3664 18.9456 14.2786 19.1666 14.2786H23.3333C23.7753 14.2786 24.1992 14.1031 24.5118 13.7905C24.8244 13.4779 25 13.054 25 12.612C25 12.17 24.8244 11.746 24.5118 11.4335C24.1992 11.1209 23.7753 10.9453 23.3333 10.9453H21.6666C21.6666 10.5033 21.491 10.0794 21.1785 9.7668C20.8659 9.45424 20.442 9.27865 20 9.27865C19.5579 9.27865 19.134 9.45424 18.8215 9.7668C18.5089 10.0794 18.3333 10.5033 18.3333 10.9453C17.2282 11.0558 16.2123 11.6008 15.5091 12.4603C14.8058 13.3199 14.4728 14.4236 14.5833 15.5286C14.6938 16.6337 15.2388 17.6496 16.0983 18.3529C16.9579 19.0561 18.0616 19.3892 19.1666 19.2786H20.8333C21.0543 19.2786 21.2663 19.3664 21.4226 19.5227C21.5788 19.679 21.6666 19.891 21.6666 20.112C21.6666 20.333 21.5788 20.545 21.4226 20.7012C21.2663 20.8575 21.0543 20.9453 20.8333 20.9453H16.6666C16.2246 20.9453 15.8007 21.1209 15.4881 21.4335C15.1756 21.746 15 22.17 15 22.612C15 23.054 15.1756 23.4779 15.4881 23.7905C15.8007 24.1031 16.2246 24.2786 16.6666 24.2786H18.3333C18.3333 24.7207 18.5089 25.1446 18.8215 25.4572C19.134 25.7697 19.5579 25.9453 20 25.9453C20.442 25.9453 20.8659 25.7697 21.1785 25.4572C21.491 25.1446 21.6666 24.7207 21.6666 24.2786C22.7717 24.1681 23.7876 23.6232 24.4909 22.7636C25.1941 21.9041 25.5271 20.8004 25.4166 19.6953C25.3061 18.5902 24.7612 17.5743 23.9016 16.8711C23.0421 16.1678 21.9384 15.8348 20.8333 15.9453Z" fill="black"/>
<defs>
<linearGradient id="paint0_linear_2109_2646" x1="2.99854" y1="-9.05473" x2="42.9985" y2="37.9453" gradientUnits="userSpaceOnUse">
<stop stop-color="#E0AA3E"/>
<stop offset="0.0989583" stop-color="#F9F295"/>
<stop offset="0.364468" stop-color="#E0AA3E"/>
<stop offset="0.65625" stop-color="#F9F295"/>
<stop offset="1" stop-color="#B88A44"/>
</linearGradient>
</defs>
</svg>
