<svg width="40" height="40" viewBox="0 0 40 40" fill="none" xmlns="http://www.w3.org/2000/svg">
<path d="M30.0002 36.6667H10.0002C9.55814 36.6667 9.13421 36.4911 8.82165 36.1786C8.50909 35.866 8.3335 35.4421 8.3335 35C8.3335 34.558 8.50909 34.1341 8.82165 33.8215C9.13421 33.509 9.55814 33.3334 10.0002 33.3334H30.0002C30.4422 33.3334 30.8661 33.509 31.1787 33.8215C31.4912 34.1341 31.6668 34.558 31.6668 35C31.6668 35.4421 31.4912 35.866 31.1787 36.1786C30.8661 36.4911 30.4422 36.6667 30.0002 36.6667ZM33.3335 3.33337H6.66683C5.78277 3.33337 4.93493 3.68456 4.30981 4.30968C3.68469 4.93481 3.3335 5.78265 3.3335 6.66671V26.6667C3.3335 27.5508 3.68469 28.3986 4.30981 29.0237C4.93493 29.6488 5.78277 30 6.66683 30H33.3335C34.2176 30 35.0654 29.6488 35.6905 29.0237C36.3156 28.3986 36.6668 27.5508 36.6668 26.6667V6.66671C36.6668 5.78265 36.3156 4.93481 35.6905 4.30968C35.0654 3.68456 34.2176 3.33337 33.3335 3.33337Z" fill="url(#paint0_linear_447_1472)"/>
<path d="M20.8333 15H19.1666C18.9456 15 18.7337 14.9122 18.5774 14.756C18.4211 14.5997 18.3333 14.3877 18.3333 14.1667C18.3333 13.9457 18.4211 13.7337 18.5774 13.5775C18.7337 13.4212 18.9456 13.3334 19.1666 13.3334H23.3333C23.7753 13.3334 24.1992 13.1578 24.5118 12.8452C24.8244 12.5327 25 12.1087 25 11.6667C25 11.2247 24.8244 10.8008 24.5118 10.4882C24.1992 10.1756 23.7753 10 23.3333 10H21.6666C21.6666 9.55801 21.491 9.13409 21.1785 8.82153C20.8659 8.50897 20.442 8.33337 20 8.33337C19.5579 8.33337 19.134 8.50897 18.8215 8.82153C18.5089 9.13409 18.3333 9.55801 18.3333 10C17.2282 10.1105 16.2123 10.6555 15.5091 11.5151C14.8058 12.3746 14.4728 13.4783 14.5833 14.5834C14.6938 15.6884 15.2388 16.7044 16.0983 17.4076C16.9579 18.1109 18.0616 18.4439 19.1666 18.3334H20.8333C21.0543 18.3334 21.2663 18.4212 21.4226 18.5775C21.5788 18.7337 21.6666 18.9457 21.6666 19.1667C21.6666 19.3877 21.5788 19.5997 21.4226 19.756C21.2663 19.9122 21.0543 20 20.8333 20H16.6666C16.2246 20 15.8007 20.1756 15.4881 20.4882C15.1756 20.8008 15 21.2247 15 21.6667C15 22.1087 15.1756 22.5327 15.4881 22.8452C15.8007 23.1578 16.2246 23.3334 16.6666 23.3334H18.3333C18.3333 23.7754 18.5089 24.1993 18.8215 24.5119C19.134 24.8244 19.5579 25 20 25C20.442 25 20.8659 24.8244 21.1785 24.5119C21.491 24.1993 21.6666 23.7754 21.6666 23.3334C22.7717 23.2229 23.7876 22.6779 24.4909 21.8184C25.1941 20.9588 25.5271 19.8551 25.4166 18.75C25.3061 17.645 24.7612 16.6291 23.9016 15.9258C23.0421 15.2225 21.9384 14.8895 20.8333 15Z" fill="black"/>
<defs>
<linearGradient id="paint0_linear_447_1472" x1="3" y1="-10" x2="43" y2="37" gradientUnits="userSpaceOnUse">
<stop stop-color="#E0AA3E"/>
<stop offset="0.0989583" stop-color="#F9F295"/>
<stop offset="0.364468" stop-color="#E0AA3E"/>
<stop offset="0.65625" stop-color="#F9F295"/>
<stop offset="1" stop-color="#B88A44"/>
</linearGradient>
</defs>
</svg>
