<svg width="374" height="700" viewBox="0 0 374 700" fill="none" xmlns="http://www.w3.org/2000/svg">
<mask id="mask0_703_554" style="mask-type:alpha" maskUnits="userSpaceOnUse" x="0" y="0" width="374" height="700">
<rect width="374" height="700" fill="url(#paint0_radial_703_554)"/>
</mask>
<g mask="url(#mask0_703_554)">
<path d="M-56.5844 483.225C188.651 634.345 1214.24 663.109 1158.01 428.347L1232.1 737.691L-7.92026 686.384L-56.5844 483.225Z" fill="url(#paint1_linear_703_554)"/>
<path d="M1146.45 551.046C1042.14 681.219 7.06152 712.273 -85.4114 326.226L-47.5924 658.549L1184.41 709.525L1146.45 551.046Z" fill="url(#paint2_linear_703_554)"/>
<path d="M1167.68 558.243C1199.34 690.56 -72.1956 718.876 -169 314.314L-83.6983 670.805L1207.42 724.323L1167.68 558.243Z" fill="url(#paint3_linear_703_554)"/>
<path d="M1170.79 571.009C1215.67 758.365 -76.8284 699.103 -120.308 517.588L-71.9759 719.36L1219.12 772.781L1170.79 571.009Z" fill="url(#paint4_linear_703_554)"/>
</g>
<defs>
<radialGradient id="paint0_radial_703_554" cx="0" cy="0" r="1" gradientUnits="userSpaceOnUse" gradientTransform="translate(-14.2248 -449.75) rotate(77.3154) scale(1247.57 793.07)">
<stop stop-color="#625B4E"/>
<stop offset="1" stop-color="#232323"/>
</radialGradient>
<linearGradient id="paint1_linear_703_554" x1="-82.02" y1="377.039" x2="2842.24" y2="99.058" gradientUnits="userSpaceOnUse">
<stop stop-color="#E0AA3E"/>
<stop offset="0.0989583" stop-color="#F9F295"/>
<stop offset="0.364468" stop-color="#E0AA3E"/>
<stop offset="0.65625" stop-color="#F9F295"/>
<stop offset="1" stop-color="#B88A44"/>
</linearGradient>
<linearGradient id="paint2_linear_703_554" x1="-131.292" y1="434.529" x2="1192.77" y2="511.248" gradientUnits="userSpaceOnUse">
<stop stop-color="#CD9A32"/>
<stop offset="1" stop-color="#FFF9A6"/>
</linearGradient>
<linearGradient id="paint3_linear_703_554" x1="-1084.71" y1="299.942" x2="2554.06" y2="590.465" gradientUnits="userSpaceOnUse">
<stop stop-color="#E0AA3E"/>
<stop offset="0.0989583" stop-color="#F9F295"/>
<stop offset="0.364468" stop-color="#E0AA3E"/>
<stop offset="0.65625" stop-color="#F9F295"/>
<stop offset="1" stop-color="#B88A44"/>
</linearGradient>
<linearGradient id="paint4_linear_703_554" x1="294.947" y1="635.864" x2="1242.17" y2="1316.96" gradientUnits="userSpaceOnUse">
<stop stop-color="#E0AA3E"/>
<stop offset="0.0989583" stop-color="#F9F295"/>
<stop offset="0.364468" stop-color="#E0AA3E"/>
<stop offset="0.65625" stop-color="#F9F295"/>
<stop offset="1" stop-color="#B88A44"/>
</linearGradient>
</defs>
</svg>
