<svg width="40" height="41" viewBox="0 0 40 41" fill="none" xmlns="http://www.w3.org/2000/svg">
<path d="M34.9987 22.812L33.4987 34.6786C33.4004 35.4917 33.0063 36.2401 32.3915 36.7811C31.7767 37.3221 30.9843 37.6179 30.1654 37.612H9.79868C8.97976 37.6179 8.18731 37.3221 7.57251 36.7811C6.95772 36.2401 6.5636 35.4917 6.46535 34.6786L4.99868 22.812C4.97244 22.5782 4.996 22.3414 5.06781 22.1174C5.13963 21.8933 5.25807 21.687 5.41535 21.512C5.57153 21.3342 5.76379 21.1917 5.97931 21.094C6.19484 20.9963 6.42871 20.9456 6.66535 20.9453H33.332C33.5687 20.9456 33.8025 20.9963 34.0181 21.094C34.2336 21.1917 34.4258 21.3342 34.582 21.512C34.7393 21.687 34.8577 21.8933 34.9296 22.1174C35.0014 22.3414 35.0249 22.5782 34.9987 22.812ZM29.9987 12.612V10.9453C29.9987 9.1772 29.2963 7.48151 28.0461 6.23127C26.7958 4.98102 25.1001 4.27864 23.332 4.27864H16.6653C14.8972 4.27864 13.2015 4.98102 11.9513 6.23127C10.7011 7.48151 9.99868 9.1772 9.99868 10.9453V12.612C9.99868 13.054 10.1743 13.4779 10.4868 13.7905C10.7994 14.1031 11.2233 14.2786 11.6653 14.2786H28.332C28.774 14.2786 29.198 14.1031 29.5105 13.7905C29.8231 13.4779 29.9987 13.054 29.9987 12.612ZM16.6653 7.61198H23.332C24.2161 7.61198 25.0639 7.96317 25.689 8.58829C26.7114 9.61066 25.4933 10.9453 24.0474 10.9453H15.9499C14.5041 10.9453 13.286 9.61066 14.3083 8.58829C14.9334 7.96317 15.7813 7.61198 16.6653 7.61198Z" fill="url(#paint0_linear_2109_2633)"/>
<path d="M34.9987 10.9453H4.9987C4.55667 10.9453 4.13275 11.1209 3.82019 11.4335C3.50763 11.746 3.33203 12.17 3.33203 12.612V23.0786C3.3314 23.7795 3.55169 24.4627 3.9616 25.0312C4.37151 25.5997 4.95018 26.0245 5.61537 26.2453L13.1487 28.7453C17.594 30.2343 22.4034 30.2343 26.8487 28.7453L34.382 26.2453C35.0472 26.0245 35.6259 25.5997 36.0358 25.0312C36.4457 24.4627 36.666 23.7795 36.6654 23.0786V12.612C36.6654 12.17 36.4898 11.746 36.1772 11.4335C35.8647 11.1209 35.4407 10.9453 34.9987 10.9453Z" fill="url(#paint1_linear_2109_2633)"/>
<path d="M23.3333 22.612H16.6667C16.2246 22.612 15.8007 22.4364 15.4882 22.1238C15.1756 21.8113 15 21.3873 15 20.9453C15 20.5033 15.1756 20.0794 15.4882 19.7668C15.8007 19.4542 16.2246 19.2786 16.6667 19.2786H23.3333C23.7754 19.2786 24.1993 19.4542 24.5118 19.7668C24.8244 20.0794 25 20.5033 25 20.9453C25 21.3873 24.8244 21.8113 24.5118 22.1238C24.1993 22.4364 23.7754 22.612 23.3333 22.612Z" fill="black"/>
<defs>
<linearGradient id="paint0_linear_2109_2633" x1="19.9985" y1="-1.55473" x2="71.18" y2="49.842" gradientUnits="userSpaceOnUse">
<stop stop-color="#E0AA3E"/>
<stop offset="0.0989583" stop-color="#F9F295"/>
<stop offset="0.364468" stop-color="#E0AA3E"/>
<stop offset="0.65625" stop-color="#F9F295"/>
<stop offset="1" stop-color="#B88A44"/>
</linearGradient>
<linearGradient id="paint1_linear_2109_2633" x1="15.9985" y1="-26.5547" x2="12.1919" y2="59.7408" gradientUnits="userSpaceOnUse">
<stop stop-color="#E0AA3E"/>
<stop offset="0.0989583" stop-color="#F9F295"/>
<stop offset="0.364468" stop-color="#E0AA3E"/>
<stop offset="0.65625" stop-color="#F9F295"/>
<stop offset="1" stop-color="#B88A44"/>
</linearGradient>
</defs>
</svg>
