<svg width="40" height="41" viewBox="0 0 40 41" fill="none" xmlns="http://www.w3.org/2000/svg">
<path d="M35.8363 26.3476C35.8026 32.5954 33.0056 40.8382 27.2094 40.7505C25.5312 33.9973 16.4527 31.2475 18.7712 24.0898C13.5681 26.4353 12.9143 32.1169 16.4392 36.3023C17.1604 37.4481 19.2632 38.5399 18.7173 40.0631C13.0896 43.6082 4.5907 36.646 5.01532 25.8961C5.43993 15.1461 15.3137 10.7922 15.7855 2.20576C18.2051 -2.91647 23.8125 9.74757 24.8842 11.8032C25.9154 14.1891 26.34 16.8243 26.6163 19.3518C29.7166 17.1478 29.0696 13.3938 30.9163 13.2792C34.0637 13.0703 35.87 20.0999 35.8363 26.3476Z" fill="#232323"/>
</svg>
