<svg width="24" height="24" viewBox="0 0 24 24" fill="none" xmlns="http://www.w3.org/2000/svg">
<path d="M8 5H5C4.73478 5 4.48043 5.10536 4.29289 5.29289C4.10536 5.48043 4 5.73478 4 6V15H7.38C7.56636 14.9987 7.74938 15.0495 7.90841 15.1467C8.06743 15.2439 8.19614 15.3836 8.28 15.55L8.72 16.45C8.80386 16.6164 8.93257 16.7561 9.09159 16.8533C9.25062 16.9505 9.43364 17.0013 9.62 17H14.38C14.5664 17.0013 14.7494 16.9505 14.9084 16.8533C15.0674 16.7561 15.1961 16.6164 15.28 16.45L15.72 15.55C15.8039 15.3836 15.9326 15.2439 16.0916 15.1467C16.2506 15.0495 16.4336 14.9987 16.62 15H20V6C20 5.73478 19.8946 5.48043 19.7071 5.29289C19.5196 5.10536 19.2652 5 19 5H16" stroke="black" stroke-width="2" stroke-linecap="round" stroke-linejoin="round"/>
<path d="M9 9L12 12L15 9M8.28 15.55L8.72 16.45C8.80386 16.6164 8.93257 16.7561 9.09159 16.8533C9.25062 16.9505 9.43364 17.0013 9.62 17H14.38C14.5664 17.0013 14.7494 16.9505 14.9084 16.8533C15.0674 16.7561 15.1961 16.6164 15.28 16.45L15.72 15.55C15.8039 15.3836 15.9326 15.2439 16.0916 15.1467C16.2506 15.0495 16.4336 14.9987 16.62 15H20V20C20 20.2652 19.8946 20.5196 19.7071 20.7071C19.5196 20.8946 19.2652 21 19 21H5C4.73478 21 4.48043 20.8946 4.29289 20.7071C4.10536 20.5196 4 20.2652 4 20V15H7.38C7.56636 14.9987 7.74938 15.0495 7.90841 15.1467C8.06743 15.2439 8.19614 15.3836 8.28 15.55V15.55ZM12 3V12V3Z" stroke="black" stroke-width="2" stroke-linecap="round" stroke-linejoin="round"/>
<path d="M12 3V12M12 12L9 9M12 12L15 9" stroke="#FFB525" stroke-width="2" stroke-linecap="round" stroke-linejoin="round"/>
</svg>
