<svg width="40" height="41" viewBox="0 0 40 41" fill="none" xmlns="http://www.w3.org/2000/svg">
<path d="M19.9987 37.612C29.2034 37.612 36.6654 30.1501 36.6654 20.9453C36.6654 11.7406 29.2034 4.27864 19.9987 4.27864C10.794 4.27864 3.33203 11.7406 3.33203 20.9453C3.33203 30.1501 10.794 37.612 19.9987 37.612Z" fill="url(#paint0_linear_2109_2640)"/>
<path d="M22.1482 24.9786C21.8713 25.2736 21.5388 25.5109 21.1698 25.6768C20.8008 25.8427 20.4026 25.934 19.9982 25.9453C19.1431 25.834 18.3468 25.4494 17.7281 24.8487C17.1094 24.248 16.7014 23.4634 16.5648 22.612H16.6648C17.1069 22.612 17.5308 22.4364 17.8434 22.1238C18.1559 21.8113 18.3315 21.3873 18.3315 20.9453C18.3315 20.5033 18.1559 20.0794 17.8434 19.7668C17.5308 19.4542 17.1069 19.2786 16.6648 19.2786H16.5648C16.7014 18.4272 17.1094 17.6426 17.7281 17.0419C18.3468 16.4413 19.1431 16.0566 19.9982 15.9453C20.4377 15.9634 20.8688 16.0718 21.2645 16.264C21.6603 16.4561 22.0121 16.7278 22.2982 17.062C22.4404 17.2391 22.6174 17.3853 22.8182 17.4915C23.019 17.5978 23.2394 17.6619 23.4658 17.6798C23.6923 17.6978 23.92 17.6693 24.1351 17.5961C24.3501 17.5228 24.5479 17.4064 24.7163 17.2539C24.8847 17.1014 25.0202 16.9161 25.1144 16.7094C25.2085 16.5027 25.2595 16.2789 25.264 16.0517C25.2686 15.8246 25.2266 15.599 25.1408 15.3886C25.0549 15.1783 24.927 14.9877 24.7648 14.8286C24.1725 14.1427 23.4413 13.5904 22.6196 13.2083C21.7979 12.8262 20.9044 12.6229 19.9982 12.612C18.2529 12.7398 16.6083 13.4779 15.3528 14.6969C14.0972 15.9158 13.3108 17.5379 13.1315 19.2786C12.6895 19.2786 12.2656 19.4542 11.953 19.7668C11.6404 20.0794 11.4648 20.5033 11.4648 20.9453C11.4648 21.3873 11.6404 21.8113 11.953 22.1238C12.2656 22.4364 12.6895 22.612 13.1315 22.612C13.3108 24.3527 14.0972 25.9748 15.3528 27.1938C16.6083 28.4127 18.2529 29.1508 19.9982 29.2786C20.8423 29.2667 21.6758 29.0883 22.4508 28.7537C23.2259 28.4191 23.9273 27.9348 24.5148 27.3286C24.6691 27.1732 24.7913 26.989 24.8744 26.7864C24.9575 26.5837 24.9999 26.3667 24.9991 26.1478C24.9983 25.9288 24.9544 25.7121 24.8699 25.51C24.7854 25.308 24.6619 25.1246 24.5065 24.9703C24.3511 24.816 24.1668 24.6938 23.9642 24.6107C23.7616 24.5276 23.5446 24.4853 23.3256 24.486C23.1066 24.4868 22.8899 24.5307 22.6879 24.6152C22.4859 24.6998 22.3025 24.8232 22.1482 24.9786Z" fill="black"/>
<defs>
<linearGradient id="paint0_linear_2109_2640" x1="5.49853" y1="4.94527" x2="28.9985" y2="37.9453" gradientUnits="userSpaceOnUse">
<stop stop-color="#E0AA3E"/>
<stop offset="0.0989583" stop-color="#F9F295"/>
<stop offset="0.364468" stop-color="#E0AA3E"/>
<stop offset="0.65625" stop-color="#F9F295"/>
<stop offset="1" stop-color="#B88A44"/>
</linearGradient>
</defs>
</svg>
