<svg width="238" height="40" viewBox="0 0 238 40" fill="none" xmlns="http://www.w3.org/2000/svg">
<path d="M59.9995 6.70128H79.0438V11.5538H65.5388V19.1075H76.5264V23.9142H65.5388V35.3139H59.9995V6.70128ZM92.2446 32.8873C90.7337 34.7187 88.9023 36 86.2926 36C82.4925 36 79.7461 33.391 79.7461 30.0487C79.7461 26.1577 82.5847 22.8612 92.2439 22.5414V22.0377C92.2439 19.1991 91.0529 18.0094 88.0317 18.0094C85.8805 18.0094 83.2708 18.9709 81.0274 20.2522L79.9292 15.9949C81.9895 14.7136 85.2853 13.5232 88.7643 13.5232C95.265 13.5232 97.7832 16.4069 97.6451 22.2209V29.7747C97.6451 31.3771 97.9198 31.606 99.5223 31.6976L99.1102 35.7717C95.0819 36.2303 93.2047 34.9941 92.4264 32.888H92.2446V32.8873ZM92.2446 25.3787C86.98 26.0196 85.0571 27.0727 85.0571 29.3161C85.0571 30.9186 86.2926 32.0632 88.2156 32.0632C89.9096 32.0632 91.2824 31.2849 92.2439 30.2318V25.3787H92.2446ZM112.101 36C105.233 36 101.159 31.7427 101.159 24.8299C101.159 17.9629 105.646 13.5225 112.284 13.5225C115.168 13.5225 117.64 14.1628 119.563 15.3074L118.419 19.6563C116.679 18.5574 114.665 17.9623 112.696 17.9623C108.805 17.9623 106.699 20.6171 106.699 24.6919C106.699 28.9956 109.126 31.5131 112.696 31.5131C114.894 31.5131 116.908 30.9179 118.556 29.8655L119.426 34.2602C117.594 35.3597 114.939 36 112.101 36ZM126.687 25.9288C126.916 29.3626 129.252 31.6969 133.005 31.6969C135.248 31.6969 137.675 30.9644 139.597 29.774L140.285 34.2609C138.27 35.3597 135.477 36 132.639 36C125.865 36 121.377 31.6969 121.377 24.9673C121.377 18.1003 125.955 13.5225 132.272 13.5225C137.857 13.5225 140.971 16.9099 140.971 22.0829C140.971 23.2275 140.788 24.6926 140.514 25.6076L126.687 25.7907V25.9288ZM135.89 22.5865V22.2202C135.89 19.3822 134.654 17.5967 131.861 17.5967C128.885 17.5967 127.101 20.0232 126.825 22.6323L135.89 22.5865ZM154.701 35.9542C153.329 35.9542 151.36 35.6795 149.987 35.2217L144.813 35.9993V4.73255L150.215 4V16.2231C151.634 14.8503 153.557 13.5225 156.121 13.5225C161.706 13.5225 165.368 18.0538 165.368 24.5552C165.369 31.2849 160.699 35.9542 154.701 35.9542ZM154.565 18.0538C152.779 18.0538 151.406 18.7413 150.216 19.7936V30.4607C151.223 31.2384 152.596 31.6511 154.198 31.6511C157.815 31.6511 159.875 28.7209 159.875 24.7841C159.875 20.6635 157.906 18.0538 154.565 18.0538ZM178.597 36C172.416 36 167.929 31.7885 167.929 24.7841C167.929 17.8256 172.645 13.4767 178.872 13.4767C185.097 13.4767 189.538 17.7805 189.538 24.739C189.538 31.6511 184.776 36 178.597 36ZM178.688 17.8256C175.164 17.8256 173.241 20.6642 173.241 24.739C173.241 28.7674 175.254 31.6054 178.78 31.6054C182.26 31.6054 184.182 28.859 184.182 24.7841C184.182 20.71 182.167 17.8256 178.688 17.8256ZM202.826 36C196.646 36 192.159 31.7885 192.159 24.7841C192.159 17.8256 196.875 13.4767 203.1 13.4767C209.327 13.4767 213.767 17.7805 213.767 24.739C213.767 31.6511 209.007 36 202.826 36ZM202.918 17.8256C199.392 17.8256 197.469 20.6642 197.469 24.739C197.469 28.7674 199.484 31.6054 203.01 31.6054C206.488 31.6054 208.411 28.859 208.411 24.7841C208.411 20.71 206.397 17.8256 202.918 17.8256ZM222.893 25.1497V35.3132H217.491V4.73255L222.893 4V23.5937H222.984L230.538 14.2093H236.994L228.249 24.2347L237.039 35.3132H230.584L222.984 25.1497H222.893Z" fill="#465B94"/>
<path d="M37.7921 1.46924e-07H2.20751C1.91758 -0.000105645 1.63048 0.056921 1.36261 0.167821C1.09473 0.278721 0.851335 0.441321 0.646328 0.646328C0.441321 0.851335 0.278721 1.09473 0.167821 1.36261C0.056921 1.63048 -0.000105645 1.91758 1.46924e-07 2.20751V37.7917C1.46924e-07 38.3772 0.232576 38.9386 0.646564 39.3526C1.06055 39.7666 1.62204 39.9992 2.20751 39.9992H37.7921C38.3775 39.999 38.9388 39.7663 39.3527 39.3524C39.7665 38.9384 39.9991 38.3771 39.9992 37.7917V2.20751C39.9992 1.91763 39.9422 1.63059 39.8313 1.36276C39.7204 1.09494 39.5578 0.85158 39.3529 0.646589C39.1479 0.441597 38.9046 0.278987 38.6368 0.168045C38.369 0.0571019 38.082 1.42103e-07 37.7921 1.46924e-07Z" fill="#485A95"/>
<path d="M32.7984 24.5096L33.5765 18.4728H27.5989V14.6185C27.5989 12.8711 28.0839 11.68 30.5905 11.68L33.7866 11.6788V6.27876C33.234 6.20549 31.3368 6.04126 29.1289 6.04126C24.5199 6.04126 21.3644 8.85458 21.3644 14.0211V18.4732H16.1523V24.51H21.3648V40H27.5993V24.5096H32.7984Z" fill="white"/>
</svg>
