<svg width="16" height="16" viewBox="0 0 16 16" fill="none" xmlns="http://www.w3.org/2000/svg">
<path d="M3.33333 2V11.3333V2ZM3.33333 11.3333C3.06963 11.3333 2.81184 11.4115 2.59257 11.558C2.37331 11.7045 2.20241 11.9128 2.10149 12.1564C2.00058 12.4001 1.97417 12.6681 2.02562 12.9268C2.07707 13.1854 2.20405 13.423 2.39052 13.6095C2.57699 13.7959 2.81457 13.9229 3.07321 13.9744C3.33185 14.0258 3.59994 13.9994 3.84358 13.8985C4.08721 13.7976 4.29545 13.6267 4.44196 13.4074C4.58847 13.1882 4.66667 12.9304 4.66667 12.6667C4.66667 12.313 4.52619 11.9739 4.27614 11.7239C4.02609 11.4738 3.68696 11.3333 3.33333 11.3333ZM8 4.66667V14V4.66667ZM8 2C7.73629 2 7.47851 2.0782 7.25924 2.22471C7.03998 2.37122 6.86908 2.57945 6.76816 2.82309C6.66724 3.06672 6.64084 3.33481 6.69229 3.59345C6.74373 3.8521 6.87072 4.08967 7.05719 4.27614C7.24366 4.46261 7.48124 4.5896 7.73988 4.64105C7.99852 4.69249 8.26661 4.66609 8.51025 4.56517C8.75388 4.46426 8.96212 4.29336 9.10863 4.07409C9.25514 3.85483 9.33333 3.59704 9.33333 3.33333C9.33333 2.97971 9.19286 2.64057 8.94281 2.39052C8.69276 2.14048 8.35362 2 8 2ZM12.6667 9.33333V14V9.33333ZM12.6667 6.66667V2V6.66667ZM12.6667 6.66667C12.403 6.66667 12.1452 6.74487 11.9259 6.89137C11.7066 7.03788 11.5357 7.24612 11.4348 7.48976C11.3339 7.73339 11.3075 8.00148 11.359 8.26012C11.4104 8.51876 11.5374 8.75634 11.7239 8.94281C11.9103 9.12928 12.1479 9.25627 12.4065 9.30771C12.6652 9.35916 12.9333 9.33276 13.1769 9.23184C13.4205 9.13092 13.6288 8.96003 13.7753 8.74076C13.9218 8.52149 14 8.26371 14 8C14 7.64638 13.8595 7.30724 13.6095 7.05719C13.3594 6.80714 13.0203 6.66667 12.6667 6.66667Z" stroke="#898989" stroke-width="1.5" stroke-linecap="round" stroke-linejoin="round"/>
</svg>
