<svg width="40" height="41" viewBox="0 0 40 41" fill="none" xmlns="http://www.w3.org/2000/svg">
<path d="M28.3334 14.3287C28.3334 15.9769 27.8447 17.588 26.929 18.9584C26.0133 20.3289 24.7118 21.397 23.1891 22.0277C21.6664 22.6584 19.9908 22.8235 18.3743 22.5019C16.7578 22.1804 15.273 21.3867 14.1075 20.2213C12.9421 19.0558 12.1484 17.571 11.8269 15.9544C11.5053 14.3379 11.6704 12.6624 12.3011 11.1397C12.9318 9.61695 13.9999 8.31546 15.3703 7.39978C16.7407 6.4841 18.3519 5.99536 20.0001 5.99536C22.2102 5.99536 24.3298 6.87333 25.8926 8.43614C27.4554 9.99894 28.3334 12.1186 28.3334 14.3287ZM25.0001 22.662H15.0001C12.7899 22.662 10.6703 23.54 9.10752 25.1028C7.54472 26.6656 6.66675 28.7852 6.66675 30.9954C6.66675 32.3214 7.19353 33.5932 8.13121 34.5309C9.0689 35.4686 10.3407 35.9954 11.6667 35.9954H28.3334C29.6595 35.9954 30.9313 35.4686 31.8689 34.5309C32.8066 33.5932 33.3334 32.3214 33.3334 30.9954C33.3334 28.7852 32.4554 26.6656 30.8926 25.1028C29.3298 23.54 27.2102 22.662 25.0001 22.662Z" fill="#232323"/>
</svg>
