<svg width="60" height="60" viewBox="0 0 60 60" fill="none" xmlns="http://www.w3.org/2000/svg">
<g clip-path="url(#clip0_950_1253)">
<path d="M45.029 50.0024C46.2629 50.0102 47.529 50.8731 47.529 52.107V55.0024C47.529 56.3285 47.0022 57.6002 46.0645 58.5379C45.1269 59.4756 43.8551 60.0024 42.529 60.0024H7.529C5.53987 60.0024 3.63222 59.2122 2.2257 57.8057C0.819174 56.3992 0.0289975 54.4915 0.0289975 52.5024V17.5024C-0.00966582 17.0866 -0.00966582 16.6681 0.0289975 16.2524C0.377124 14.4597 1.34909 12.8483 2.77241 11.7041C4.19574 10.56 5.97838 9.95707 7.804 10.0024H35.029C36.3551 10.0024 37.6269 10.5292 38.5645 11.4668C39.5022 12.4045 40.029 13.6763 40.029 15.0024C40.029 16.3831 38.9097 17.5024 37.529 17.5024H36.279C35.5886 17.5024 35.029 16.9427 35.029 16.2524C35.029 15.562 34.4694 15.0024 33.779 15.0024H7.804C7.17595 14.9714 6.55653 15.1587 6.05076 15.5323C5.66657 15.8161 5.36592 16.1942 5.17564 16.6267C5.0548 16.9014 4.99964 17.2038 5.029 17.5024C5.02895 18.0982 5.24173 18.6745 5.629 19.1274C5.86371 19.4018 6.15509 19.6221 6.48308 19.7732C6.81107 19.9242 7.1679 20.0024 7.529 20.0024H42.529C43.8551 20.0024 45.1269 20.5292 46.0645 21.4668C47.0022 22.4045 47.529 23.6763 47.529 25.0024V27.8978C47.529 29.1317 46.2629 29.9945 45.029 30.0024H37.529C35.5399 30.0024 33.6322 30.7926 32.2257 32.1991C30.8192 33.6056 30.029 35.5133 30.029 37.5024V42.5024C30.029 44.4915 30.8192 46.3992 32.2257 47.8057C33.6322 49.2122 35.5399 50.0024 37.529 50.0024H45.029ZM47.529 33.1774C46.7694 32.7367 45.9072 32.5039 45.029 32.5024H37.529C36.2029 32.5024 34.9311 33.0292 33.9935 33.9668C33.0558 34.9045 32.529 36.1763 32.529 37.5024V42.5024C32.529 43.8285 33.0558 45.1002 33.9935 46.0379C34.9311 46.9756 36.2029 47.5024 37.529 47.5024H45.029C46.3551 47.5024 47.6269 46.9756 48.5645 46.0379C49.5022 45.1002 50.029 43.8285 50.029 42.5024V37.5024C50.0281 36.6256 49.7966 35.7644 49.3578 35.0053C48.9191 34.2462 48.2883 33.6158 47.529 33.1774Z" fill="url(#paint0_linear_950_1253)"/>
<path d="M56.1632 3.83676C53.5854 1.34703 50.1329 -0.0306246 46.5492 0.000516685C42.9655 0.031658 39.5374 1.4691 37.0033 4.00325C34.4691 6.5374 33.0317 9.96549 33.0005 13.5492C32.9694 17.1329 34.347 20.5854 36.8368 23.1632C39.4146 25.653 42.8671 27.0306 46.4508 26.9995C50.0345 26.9683 53.4626 25.5309 55.9967 22.9967C58.5309 20.4626 59.9683 17.0345 59.9995 13.4508C60.0306 9.86712 58.653 6.41456 56.1632 3.83676ZM49.794 17.368C49.794 17.7305 49.65 18.0782 49.3937 18.3345C49.1373 18.5908 48.7897 18.7348 48.4272 18.7348C48.0647 18.7348 47.717 18.5908 47.4607 18.3345C47.2044 18.0782 47.0604 17.7305 47.0604 17.368V12.9396H42.632C42.2695 12.9396 41.9218 12.7956 41.6655 12.5393C41.4092 12.283 41.2652 11.9353 41.2652 11.5728C41.2652 11.2103 41.4092 10.8627 41.6655 10.6063C41.9218 10.35 42.2695 10.206 42.632 10.206H48.4272C48.7897 10.206 49.1373 10.35 49.3937 10.6063C49.65 10.8627 49.794 11.2103 49.794 11.5728V17.368Z" fill="black"/>
</g>
<defs>
<linearGradient id="paint0_linear_950_1253" x1="-0.500534" y1="-10.001" x2="59.4972" y2="60.5339" gradientUnits="userSpaceOnUse">
<stop stop-color="#E0AA3E"/>
<stop offset="0.0989583" stop-color="#F9F295"/>
<stop offset="0.364468" stop-color="#E0AA3E"/>
<stop offset="0.65625" stop-color="#F9F295"/>
<stop offset="1" stop-color="#B88A44"/>
</linearGradient>
<clipPath id="clip0_950_1253">
<rect width="60" height="60" fill="white"/>
</clipPath>
</defs>
</svg>
