<svg width="343" height="300" viewBox="0 0 343 300" fill="none" xmlns="http://www.w3.org/2000/svg">
<rect width="343" height="300" rx="30" fill="url(#paint0_radial_955_768)"/>
<mask id="mask0_955_768" style="mask-type:alpha" maskUnits="userSpaceOnUse" x="0" y="0" width="343" height="300">
<rect width="343" height="300" rx="30" fill="url(#paint1_linear_955_768)"/>
</mask>
<g mask="url(#mask0_955_768)">
<path d="M-31.6597 94.6045C30.8407 195.878 390.885 246.844 409.283 100.03L385.04 293.485L-47.5812 221.654L-31.6597 94.6045Z" fill="url(#paint2_linear_955_768)"/>
<path d="M887.327 -2.6099C831.85 193.628 87.5771 452.539 -38.6799 -45.0674L39.7686 392.064L939.158 201.667L887.327 -2.6099Z" fill="url(#paint3_linear_955_768)"/>
<path d="M903.802 2.4362C947.077 172.991 31.3125 478.004 -101 -43.4705L15.5906 416.04L958.119 216.511L903.802 2.4362Z" fill="url(#paint4_linear_955_768)"/>
<path d="M907.437 -38.3066C969.775 207.383 8.94758 402.715 -51.4473 164.685L15.6878 429.279L974.572 226.287L907.437 -38.3066Z" fill="url(#paint5_linear_955_768)"/>
</g>
<defs>
<radialGradient id="paint0_radial_955_768" cx="0" cy="0" r="1" gradientUnits="userSpaceOnUse" gradientTransform="translate(171 -199.662) rotate(90) scale(378.716 249.015)">
<stop stop-color="#625B4E"/>
<stop offset="1" stop-color="#232323"/>
</radialGradient>
<linearGradient id="paint1_linear_955_768" x1="334.504" y1="290.25" x2="155.69" y2="36.4618" gradientUnits="userSpaceOnUse">
<stop stop-color="#494949"/>
<stop offset="1" stop-color="#C2C2C2"/>
</linearGradient>
<linearGradient id="paint2_linear_955_768" x1="37.8622" y1="95.5872" x2="999.47" y2="244.105" gradientUnits="userSpaceOnUse">
<stop stop-color="#E0AA3E"/>
<stop offset="0.0989583" stop-color="#F9F295"/>
<stop offset="0.364468" stop-color="#E0AA3E"/>
<stop offset="0.65625" stop-color="#F9F295"/>
<stop offset="1" stop-color="#B88A44"/>
</linearGradient>
<linearGradient id="paint3_linear_955_768" x1="-335.5" y1="-58.3066" x2="422.042" y2="238.373" gradientUnits="userSpaceOnUse">
<stop stop-color="#CD9A32"/>
<stop offset="1" stop-color="#FFF9A6"/>
</linearGradient>
<linearGradient id="paint4_linear_955_768" x1="-765.846" y1="129.628" x2="1925.07" y2="-61.1251" gradientUnits="userSpaceOnUse">
<stop stop-color="#E0AA3E"/>
<stop offset="0.0989583" stop-color="#F9F295"/>
<stop offset="0.364468" stop-color="#E0AA3E"/>
<stop offset="0.65625" stop-color="#F9F295"/>
<stop offset="1" stop-color="#B88A44"/>
</linearGradient>
<linearGradient id="paint5_linear_955_768" x1="-433.444" y1="237.577" x2="1198.06" y2="492.399" gradientUnits="userSpaceOnUse">
<stop stop-color="#E0AA3E"/>
<stop offset="0.165682" stop-color="#F9F295"/>
<stop offset="0.48125" stop-color="#E0AA3E"/>
<stop offset="0.65625" stop-color="#F9F295"/>
<stop offset="1" stop-color="#B88A44"/>
</linearGradient>
</defs>
</svg>
