<svg width="343" height="444" viewBox="0 0 343 444" fill="none" xmlns="http://www.w3.org/2000/svg">
<rect width="343" height="444" rx="30" fill="url(#paint0_linear_351_882)"/>
<mask id="mask0_351_882" style="mask-type:alpha" maskUnits="userSpaceOnUse" x="0" y="0" width="343" height="444">
<rect width="343" height="444" rx="30" fill="url(#paint1_linear_351_882)"/>
</mask>
<g mask="url(#mask0_351_882)">
<path d="M-31.6599 238.605C30.8404 339.878 390.885 390.844 409.283 244.03L385.04 437.485L-47.5814 365.654L-31.6599 238.605Z" fill="url(#paint2_linear_351_882)"/>
<path d="M887.327 141.39C831.85 337.628 87.5769 596.539 -38.6802 98.9326L39.7683 536.064L939.158 345.667L887.327 141.39Z" fill="url(#paint3_linear_351_882)"/>
<path d="M903.802 146.436C947.076 316.991 31.3122 622.004 -101.001 100.53L15.5903 560.04L958.119 360.511L903.802 146.436Z" fill="url(#paint4_linear_351_882)"/>
<path d="M907.437 105.693C969.775 351.383 8.94734 546.715 -51.4475 308.685L15.6876 573.279L974.572 370.287L907.437 105.693Z" fill="url(#paint5_linear_351_882)"/>
</g>
<defs>
<linearGradient id="paint0_linear_351_882" x1="186.5" y1="306.5" x2="186.5" y2="-841" gradientUnits="userSpaceOnUse">
<stop/>
<stop offset="1" stop-color="white"/>
</linearGradient>
<linearGradient id="paint1_linear_351_882" x1="334.504" y1="429.57" x2="53.715" y2="160.3" gradientUnits="userSpaceOnUse">
<stop stop-color="#494949"/>
<stop offset="1" stop-color="#C2C2C2"/>
</linearGradient>
<linearGradient id="paint2_linear_351_882" x1="37.8619" y1="239.587" x2="999.47" y2="388.105" gradientUnits="userSpaceOnUse">
<stop stop-color="#E0AA3E"/>
<stop offset="0.0989583" stop-color="#F9F295"/>
<stop offset="0.364468" stop-color="#E0AA3E"/>
<stop offset="0.65625" stop-color="#F9F295"/>
<stop offset="1" stop-color="#B88A44"/>
</linearGradient>
<linearGradient id="paint3_linear_351_882" x1="-335.5" y1="85.6934" x2="422.042" y2="382.373" gradientUnits="userSpaceOnUse">
<stop stop-color="#CD9A32"/>
<stop offset="1" stop-color="#FFF9A6"/>
</linearGradient>
<linearGradient id="paint4_linear_351_882" x1="-765.846" y1="273.628" x2="1925.07" y2="82.8749" gradientUnits="userSpaceOnUse">
<stop stop-color="#E0AA3E"/>
<stop offset="0.0989583" stop-color="#F9F295"/>
<stop offset="0.364468" stop-color="#E0AA3E"/>
<stop offset="0.65625" stop-color="#F9F295"/>
<stop offset="1" stop-color="#B88A44"/>
</linearGradient>
<linearGradient id="paint5_linear_351_882" x1="-433.444" y1="381.577" x2="1198.06" y2="636.399" gradientUnits="userSpaceOnUse">
<stop stop-color="#E0AA3E"/>
<stop offset="0.165682" stop-color="#F9F295"/>
<stop offset="0.48125" stop-color="#E0AA3E"/>
<stop offset="0.65625" stop-color="#F9F295"/>
<stop offset="1" stop-color="#B88A44"/>
</linearGradient>
</defs>
</svg>
