<svg width="151" height="40" viewBox="0 0 151 40" fill="none" xmlns="http://www.w3.org/2000/svg">
<g clip-path="url(#clip0_480_618)">
<path d="M56.2702 9.83667H47.9597C47.6846 9.8365 47.4184 9.93459 47.2092 10.1133C47 10.2919 46.8615 10.5395 46.8187 10.8112L43.4575 32.1215C43.4421 32.2204 43.4482 32.3215 43.4756 32.4178C43.5029 32.514 43.5508 32.6032 43.616 32.6792C43.6811 32.7552 43.7619 32.8162 43.8529 32.858C43.9439 32.8997 44.0428 32.9213 44.1429 32.9211H48.1104C48.3857 32.9212 48.652 32.823 48.8612 32.6441C49.0704 32.4651 49.2088 32.2173 49.2514 31.9453L50.1579 26.1976C50.2005 25.9258 50.3387 25.6782 50.5477 25.4993C50.7567 25.3204 51.0227 25.222 51.2978 25.2218H53.9286C59.4029 25.2218 62.5623 22.5728 63.3874 17.3233C63.7592 15.0266 63.4032 13.2221 62.3278 11.9583C61.1466 10.5706 59.0517 9.83667 56.2702 9.83667ZM57.229 17.6198C56.7745 20.6018 54.4961 20.6018 52.293 20.6018H51.0389L51.9187 15.0327C51.9445 14.8698 52.0275 14.7214 52.1529 14.6142C52.2783 14.5071 52.4379 14.4482 52.6028 14.4482H53.1776C54.6783 14.4482 56.094 14.4482 56.8255 15.3037C57.2618 15.8141 57.3954 16.5723 57.229 17.6198ZM81.1118 17.5238H77.1321C76.9672 17.5238 76.8076 17.5827 76.6822 17.6898C76.5568 17.797 76.4737 17.9454 76.448 18.1083L76.2718 19.2214L75.9935 18.8179C75.132 17.5675 73.2108 17.1495 71.2933 17.1495C66.8956 17.1495 63.1395 20.4803 62.408 25.1526C62.0276 27.4833 62.5684 29.7119 63.8905 31.2661C65.1032 32.6951 66.8385 33.2905 68.903 33.2905C72.4464 33.2905 74.4114 31.0121 74.4114 31.0121L74.2339 32.1179C74.2181 32.2168 74.224 32.3179 74.251 32.4143C74.278 32.5107 74.3256 32.6001 74.3905 32.6763C74.4555 32.7525 74.5361 32.8138 74.627 32.8558C74.7178 32.8979 74.8167 32.9198 74.9169 32.9199H78.5016C78.7769 32.92 79.0432 32.8218 79.2524 32.6428C79.4616 32.4639 79.6 32.2161 79.6426 31.9441L81.7935 18.3234C81.8093 18.2247 81.8035 18.1238 81.7766 18.0276C81.7496 17.9314 81.702 17.8422 81.6372 17.7662C81.5724 17.6902 81.4918 17.6291 81.4011 17.5873C81.3104 17.5454 81.2117 17.5238 81.1118 17.5238ZM75.5646 25.2692C75.1806 27.5428 73.376 29.069 71.0745 29.069C69.9189 29.069 68.9954 28.6984 68.4024 27.9961C67.8142 27.2986 67.5907 26.3058 67.7778 25.2C68.1363 22.9458 69.9712 21.3698 72.2374 21.3698C73.3675 21.3698 74.2862 21.7453 74.8913 22.4537C75.4977 23.1694 75.7383 24.1683 75.5646 25.2692ZM102.307 17.5238H98.3075C98.1189 17.5241 97.9333 17.5704 97.7666 17.6587C97.5999 17.747 97.4574 17.8746 97.3512 18.0305L91.8356 26.1551L89.4976 18.3477C89.4258 18.1095 89.2793 17.9009 89.0797 17.7525C88.8801 17.6041 88.6381 17.5239 88.3894 17.5238H84.4595C84.3492 17.5235 84.2404 17.5496 84.1422 17.5998C84.044 17.65 83.9592 17.723 83.8949 17.8126C83.8306 17.9023 83.7887 18.006 83.7725 18.1151C83.7564 18.2242 83.7665 18.3356 83.8021 18.44L88.2071 31.3669L84.0658 37.2131C83.9922 37.3167 83.9486 37.4386 83.9396 37.5654C83.9307 37.6922 83.9569 37.8191 84.0152 37.932C84.0736 38.045 84.1619 38.1397 84.2705 38.2057C84.3791 38.2718 84.5038 38.3068 84.6309 38.3067H88.6251C88.8116 38.307 88.9954 38.262 89.1607 38.1756C89.326 38.0893 89.4678 37.9641 89.5742 37.8109L102.875 18.6114C102.947 18.5075 102.99 18.3859 102.998 18.2597C103.005 18.1335 102.979 18.0075 102.92 17.8955C102.862 17.7834 102.773 17.6896 102.665 17.624C102.557 17.5585 102.433 17.5238 102.307 17.5238Z" fill="#253B80"/>
<path d="M115.547 9.83666H107.236C106.961 9.83678 106.695 9.935 106.486 10.1137C106.277 10.2923 106.139 10.5397 106.096 10.8112L102.735 32.1215C102.719 32.2202 102.725 32.3212 102.752 32.4174C102.779 32.5136 102.827 32.6027 102.892 32.6787C102.957 32.7547 103.037 32.8158 103.128 32.8576C103.219 32.8994 103.318 32.9211 103.418 32.9211H107.683C107.875 32.9208 108.061 32.8519 108.207 32.7267C108.353 32.6015 108.45 32.4283 108.48 32.2382L109.434 26.1976C109.476 25.9258 109.615 25.6782 109.824 25.4993C110.033 25.3204 110.299 25.222 110.574 25.2218H113.203C118.679 25.2218 121.837 22.5728 122.663 17.3233C123.036 15.0266 122.678 13.2221 121.602 11.9583C120.422 10.5706 118.329 9.83666 115.547 9.83666ZM116.506 17.6198C116.053 20.6018 113.774 20.6018 111.57 20.6018H110.317L111.198 15.0327C111.223 14.8698 111.306 14.7213 111.431 14.614C111.557 14.5068 111.716 14.448 111.881 14.4482H112.456C113.955 14.4482 115.372 14.4482 116.104 15.3037C116.54 15.814 116.672 16.5723 116.506 17.6198ZM140.388 17.5238H136.41C136.245 17.5233 136.086 17.5821 135.96 17.6893C135.835 17.7966 135.752 17.9452 135.727 18.1083L135.551 19.2214L135.272 18.8179C134.41 17.5675 132.49 17.1495 130.573 17.1495C126.175 17.1495 122.42 20.4803 121.689 25.1526C121.31 27.4833 121.848 29.7119 123.17 31.2661C124.385 32.6951 126.118 33.2905 128.183 33.2905C131.726 33.2905 133.691 31.0121 133.691 31.0121L133.513 32.1179C133.498 32.217 133.503 32.3183 133.531 32.4149C133.558 32.5114 133.606 32.601 133.671 32.6772C133.736 32.7535 133.817 32.8147 133.908 32.8566C133.999 32.8985 134.098 32.9201 134.199 32.9199H137.782C138.057 32.9197 138.323 32.8213 138.532 32.6424C138.741 32.4635 138.88 32.2159 138.922 31.9441L141.074 18.3234C141.089 18.2244 141.083 18.1233 141.056 18.027C141.028 17.9308 140.98 17.8416 140.915 17.7656C140.85 17.6897 140.769 17.6287 140.678 17.587C140.587 17.5452 140.488 17.5237 140.388 17.5238ZM134.84 25.2692C134.459 27.5428 132.652 29.069 130.35 29.069C129.197 29.069 128.271 28.6984 127.678 27.9961C127.09 27.2985 126.869 26.3058 127.054 25.2C127.415 22.9458 129.247 21.3698 131.513 21.3698C132.643 21.3698 133.562 21.7453 134.167 22.4537C134.776 23.1694 135.017 24.1683 134.84 25.2692ZM145.079 10.4212L141.668 32.1215C141.653 32.2202 141.659 32.3212 141.686 32.4174C141.713 32.5136 141.761 32.6027 141.826 32.6787C141.89 32.7547 141.971 32.8158 142.062 32.8576C142.153 32.8994 142.251 32.9211 142.351 32.9211H145.781C146.35 32.9211 146.834 32.508 146.922 31.9453L150.285 10.6362C150.301 10.5375 150.295 10.4365 150.268 10.3402C150.241 10.244 150.193 10.1547 150.128 10.0786C150.063 10.0026 149.983 9.94142 149.892 9.89944C149.801 9.85745 149.702 9.83563 149.602 9.83545H145.762C145.597 9.83603 145.438 9.89529 145.313 10.0026C145.188 10.1099 145.105 10.2583 145.079 10.4212Z" fill="#179BD7"/>
<path d="M8.94585 37.0624L9.58138 33.0256L8.16571 32.9928H1.40576L6.10358 3.20555C6.11757 3.11454 6.16379 3.03158 6.23383 2.9718C6.30387 2.91202 6.39306 2.8794 6.48514 2.87989H17.8834C21.6674 2.87989 24.2788 3.66731 25.6422 5.22151C26.2814 5.9506 26.6884 6.71251 26.8853 7.55097C27.0919 8.43075 27.0955 9.48187 26.8938 10.7639L26.8792 10.8574V11.6789L27.5184 12.041C28.0063 12.2882 28.445 12.6226 28.8125 13.0277C29.3594 13.6511 29.713 14.4434 29.8624 15.3827C30.0168 16.3487 29.9657 17.4983 29.713 18.7997C29.4213 20.2968 28.9499 21.6007 28.3131 22.6676C27.7513 23.6234 26.9959 24.4512 26.0954 25.0979C25.2497 25.6982 24.2447 26.1539 23.1086 26.4455C22.0076 26.7323 20.7524 26.8769 19.3756 26.8769H18.4885C17.8542 26.8769 17.2381 27.1054 16.7545 27.5149C16.2715 27.9288 15.9512 28.5006 15.8504 29.1286L15.7836 29.4919L14.6608 36.6067L14.6097 36.868C14.5964 36.9506 14.5733 36.9919 14.5392 37.0199C14.5063 37.0468 14.4652 37.0618 14.4226 37.0624H8.94585Z" fill="#253B80"/>
<path d="M28.1234 10.9521C28.0894 11.1697 28.0505 11.392 28.0068 11.6205C26.5036 19.338 21.3611 22.0041 14.7931 22.0041H11.449C10.6458 22.0041 9.96891 22.5873 9.84375 23.3796L8.13159 34.2383L7.64674 37.3163C7.62742 37.4384 7.6348 37.5632 7.66835 37.6822C7.70191 37.8012 7.76085 37.9115 7.84111 38.0055C7.92137 38.0995 8.02106 38.175 8.1333 38.2268C8.24554 38.2785 8.36767 38.3054 8.49128 38.3055H14.4225C15.1248 38.3055 15.7215 37.7951 15.8321 37.1024L15.8904 36.8011L17.0071 29.7143L17.0788 29.3254C17.1882 28.6303 17.7861 28.12 18.4884 28.12H19.3755C25.122 28.12 29.6205 25.7869 30.9353 19.0354C31.4846 16.215 31.2002 13.86 29.7469 12.2038C29.2863 11.6914 28.7361 11.2673 28.1234 10.9521Z" fill="#179BD7"/>
<path d="M26.551 10.3251C26.0711 10.1863 25.5828 10.0779 25.0892 10.0007C24.1138 9.85077 23.128 9.77885 22.1412 9.78559H13.2073C12.8673 9.78533 12.5385 9.90671 12.2802 10.1278C12.0219 10.3489 11.8512 10.6551 11.7989 10.991L9.89843 23.0284L9.84375 23.3796C9.90296 22.9964 10.0974 22.6471 10.3918 22.3948C10.6862 22.1424 11.0612 22.0039 11.449 22.004H14.7931C21.3611 22.004 26.5036 19.3368 28.0068 11.6205C28.0517 11.392 28.0894 11.1697 28.1234 10.9521C27.7268 10.7441 27.3134 10.5698 26.8876 10.4308C26.776 10.3938 26.6638 10.3586 26.551 10.3251Z" fill="#222D65"/>
<path d="M11.7992 10.991C11.8509 10.655 12.0215 10.3486 12.28 10.1277C12.5384 9.9067 12.8675 9.78575 13.2075 9.78681H22.1414C23.1998 9.78681 24.1877 9.85607 25.0894 10.0019C25.6995 10.0978 26.3013 10.2412 26.8891 10.4308C27.3326 10.5779 27.7445 10.7516 28.1249 10.9521C28.5721 8.10016 28.1212 6.15833 26.5792 4.39999C24.8792 2.46424 21.8109 1.6355 17.8847 1.6355H6.48647C5.68446 1.6355 5.00033 2.21878 4.87638 3.01228L0.128741 33.1058C0.106627 33.2455 0.115041 33.3883 0.153403 33.5245C0.191765 33.6607 0.259165 33.7869 0.350967 33.8945C0.442769 34.0021 0.556793 34.0886 0.685198 34.1479C0.813602 34.2073 0.953339 34.2381 1.0948 34.2383H8.1318L9.89865 23.0284L11.7992 10.991Z" fill="#253B80"/>
</g>
<defs>
<clipPath id="clip0_480_618">
<rect width="150.376" height="40" fill="white"/>
</clipPath>
</defs>
</svg>
