<svg width="40" height="41" viewBox="0 0 40 41" fill="none" xmlns="http://www.w3.org/2000/svg">
<path d="M13.3333 35.9453C12.9574 35.9431 12.5932 35.8139 12.3 35.5787C11.9565 35.3037 11.7358 34.904 11.6858 34.4669C11.6359 34.0298 11.7608 33.5907 12.0333 33.2453L16.0333 28.2453C16.3199 27.9417 16.7101 27.7567 17.1265 27.7269C17.543 27.6972 17.6729 28.1307 17.9998 28.3906C18.3266 28.6504 18.8267 28.7175 18.8916 29.13C18.9566 29.5424 18.8644 29.9643 18.6333 30.312L14.6333 35.312C14.4781 35.5084 14.2806 35.6673 14.0556 35.777C13.8305 35.8866 13.5836 35.9442 13.3333 35.9453ZM27.7 35.5787C28.0434 35.3037 28.2641 34.904 28.3141 34.4669C28.364 34.0298 28.2391 33.5907 27.9666 33.2453L23.9666 28.2453C23.8389 28.0531 23.6726 27.8895 23.4783 27.765C23.284 27.6404 23.066 27.5575 22.838 27.5216C22.61 27.4857 22.3771 27.4975 22.1539 27.5563C21.9307 27.6151 21.7222 27.7196 21.5416 27.8632C21.3609 28.0068 21.212 28.1864 21.1044 28.3906C20.9967 28.5947 20.9326 28.819 20.9162 29.0492C20.8997 29.2794 20.9313 29.5105 21.0088 29.7279C21.0864 29.9453 21.2082 30.1442 21.3666 30.312L25.3666 35.312C25.5218 35.5084 25.7193 35.6673 25.9444 35.777C26.1694 35.8866 26.4163 35.9442 26.6666 35.9453C27.0426 35.9431 27.4067 35.8139 27.7 35.5787Z" fill="url(#paint0_linear_830_51)"/>
<path d="M33.3333 5.94531H6.66667C6.22464 5.94531 5.80072 6.12091 5.48816 6.43347C5.17559 6.74603 5 7.16995 5 7.61198V27.612C5 28.496 5.35119 29.3439 5.97631 29.969C6.60143 30.5941 7.44928 30.9453 8.33333 30.9453H31.6667C32.5507 30.9453 33.3986 30.5941 34.0237 29.969C34.6488 29.3439 35 28.496 35 27.612V7.61198C35 7.16995 34.8244 6.74603 34.5118 6.43347C34.1993 6.12091 33.7754 5.94531 33.3333 5.94531Z" fill="url(#paint1_linear_830_51)"/>
<path d="M36.6666 7.61198C36.6666 7.16995 36.491 6.74603 36.1784 6.43347C35.8659 6.12091 35.4419 5.94531 34.9999 5.94531H4.99992C4.55789 5.94531 4.13397 6.12091 3.82141 6.43347C3.50885 6.74603 3.33325 7.16995 3.33325 7.61198C3.33325 8.05401 3.50885 8.47793 3.82141 8.79049C4.13397 9.10305 4.55789 9.27865 4.99992 9.27865H34.9999C35.4419 9.27865 35.8659 9.10305 36.1784 8.79049C36.491 8.47793 36.6666 8.05401 36.6666 7.61198Z" fill="url(#paint2_linear_830_51)"/>
<path d="M27.2001 20.9453C27.023 20.9682 26.8438 20.9682 26.6667 20.9453C26.3173 20.9462 25.9765 20.8373 25.6924 20.6339C25.4082 20.4306 25.1952 20.143 25.0834 19.812L24.5501 18.1453C23.3588 20.0395 21.7028 21.5975 19.7395 22.671C17.7763 23.7446 15.571 24.298 13.3334 24.2787C12.8914 24.2787 12.4675 24.1031 12.1549 23.7905C11.8423 23.478 11.6667 23.054 11.6667 22.612C11.6667 22.17 11.8423 21.7461 12.1549 21.4335C12.4675 21.1209 12.8914 20.9453 13.3334 20.9453C15.0922 20.9585 16.8227 20.502 18.3462 19.6231C19.8697 18.7441 21.1311 17.4745 22.0001 15.9453H20.0001C19.5581 15.9453 19.1341 15.7697 18.8216 15.4572C18.509 15.1446 18.3334 14.7207 18.3334 14.2787C18.3334 13.8366 18.509 13.4127 18.8216 13.1002C19.1341 12.7876 19.5581 12.612 20.0001 12.612H25.0001C25.3495 12.6111 25.6903 12.72 25.9745 12.9234C26.2586 13.1268 26.4716 13.4143 26.5834 13.7453L28.2501 18.7453C28.3338 18.9581 28.3729 19.1858 28.3648 19.4143C28.3568 19.6428 28.3018 19.8672 28.2033 20.0736C28.1049 20.28 27.965 20.4638 27.7924 20.6138C27.6198 20.7638 27.4182 20.8766 27.2001 20.9453Z" fill="black"/>
<defs>
<linearGradient id="paint0_linear_830_51" x1="24.9998" y1="19.9454" x2="28.3809" y2="45.0546" gradientUnits="userSpaceOnUse">
<stop stop-color="#E0AA3E"/>
<stop offset="0.0989583" stop-color="#F9F295"/>
<stop offset="0.364468" stop-color="#E0AA3E"/>
<stop offset="0.65625" stop-color="#F9F295"/>
<stop offset="1" stop-color="#B88A44"/>
</linearGradient>
<linearGradient id="paint1_linear_830_51" x1="22.5" y1="6.94531" x2="35.584" y2="36.2933" gradientUnits="userSpaceOnUse">
<stop stop-color="#E0AA3E"/>
<stop offset="0.0989583" stop-color="#F9F295"/>
<stop offset="0.364468" stop-color="#E0AA3E"/>
<stop offset="0.65625" stop-color="#F9F295"/>
<stop offset="1" stop-color="#B88A44"/>
</linearGradient>
<linearGradient id="paint2_linear_830_51" x1="21.9998" y1="-8.55469" x2="39.3668" y2="46.5108" gradientUnits="userSpaceOnUse">
<stop stop-color="#E0AA3E"/>
<stop offset="0.0989583" stop-color="#F9F295"/>
<stop offset="0.364468" stop-color="#E0AA3E"/>
<stop offset="0.65625" stop-color="#F9F295"/>
<stop offset="1" stop-color="#B88A44"/>
</linearGradient>
</defs>
</svg>
