<svg width="40" height="40" viewBox="0 0 40 40" fill="none" xmlns="http://www.w3.org/2000/svg">
<path d="M13.3335 34.9999C12.9576 34.9978 12.5934 34.8686 12.3002 34.6333C11.9568 34.3583 11.736 33.9587 11.6861 33.5216C11.6361 33.0845 11.761 32.6453 12.0335 32.2999L16.0335 27.2999C16.3201 26.9963 16.7103 26.8113 17.1268 26.7816C17.5433 26.7518 17.6731 27.1854 18 27.4452C18.3269 27.705 18.8269 27.7721 18.8919 28.1846C18.9569 28.5971 18.8647 29.0189 18.6335 29.3666L14.6335 34.3666C14.4783 34.563 14.2809 34.722 14.0558 34.8316C13.8307 34.9413 13.5839 34.9988 13.3335 34.9999ZM27.7002 34.6333C28.0436 34.3583 28.2644 33.9587 28.3143 33.5216C28.3643 33.0845 28.2394 32.6453 27.9669 32.2999L23.9669 27.2999C23.8391 27.1077 23.6728 26.9442 23.4785 26.8196C23.2843 26.695 23.0662 26.6121 22.8383 26.5762C22.6103 26.5403 22.3773 26.5521 22.1542 26.6109C21.931 26.6697 21.7225 26.7743 21.5418 26.9179C21.3611 27.0615 21.2123 27.241 21.1046 27.4452C20.997 27.6493 20.9329 27.8736 20.9164 28.1038C20.9 28.334 20.9315 28.5651 21.0091 28.7825C21.0866 28.9999 21.2084 29.1988 21.3669 29.3666L25.3669 34.3666C25.5221 34.563 25.7195 34.722 25.9446 34.8316C26.1697 34.9413 26.4165 34.9988 26.6669 34.9999C27.0428 34.9978 27.407 34.8686 27.7002 34.6333Z" fill="url(#paint0_linear_447_1485)"/>
<path d="M33.3333 5H6.66667C6.22464 5 5.80072 5.17559 5.48816 5.48816C5.17559 5.80072 5 6.22464 5 6.66667V26.6667C5 27.5507 5.35119 28.3986 5.97631 29.0237C6.60143 29.6488 7.44928 30 8.33333 30H31.6667C32.5507 30 33.3986 29.6488 34.0237 29.0237C34.6488 28.3986 35 27.5507 35 26.6667V6.66667C35 6.22464 34.8244 5.80072 34.5118 5.48816C34.1993 5.17559 33.7754 5 33.3333 5Z" fill="url(#paint1_linear_447_1485)"/>
<path d="M36.6668 6.66667C36.6668 6.22464 36.4912 5.80072 36.1787 5.48816C35.8661 5.17559 35.4422 5 35.0002 5H5.00016C4.55814 5 4.13421 5.17559 3.82165 5.48816C3.50909 5.80072 3.3335 6.22464 3.3335 6.66667C3.3335 7.10869 3.50909 7.53262 3.82165 7.84518C4.13421 8.15774 4.55814 8.33333 5.00016 8.33333H35.0002C35.4422 8.33333 35.8661 8.15774 36.1787 7.84518C36.4912 7.53262 36.6668 7.10869 36.6668 6.66667Z" fill="url(#paint2_linear_447_1485)"/>
<path d="M27.2003 20C27.0233 20.0228 26.844 20.0228 26.667 20C26.3176 20.0009 25.9767 19.8919 25.6926 19.6886C25.4085 19.4852 25.1955 19.1977 25.0837 18.8666L24.5503 17.2C23.3591 19.0942 21.7031 20.6521 19.7398 21.7256C17.7765 22.7992 15.5712 23.3526 13.3337 23.3333C12.8916 23.3333 12.4677 23.1577 12.1551 22.8451C11.8426 22.5326 11.667 22.1087 11.667 21.6666C11.667 21.2246 11.8426 20.8007 12.1551 20.4881C12.4677 20.1756 12.8916 20 13.3337 20C15.0925 20.0131 16.823 19.5567 18.3465 18.6777C19.87 17.7988 21.1313 16.5292 22.0003 15H20.0003C19.5583 15 19.1344 14.8244 18.8218 14.5118C18.5093 14.1992 18.3337 13.7753 18.3337 13.3333C18.3337 12.8913 18.5093 12.4673 18.8218 12.1548C19.1344 11.8422 19.5583 11.6666 20.0003 11.6666H25.0003C25.3497 11.6657 25.6906 11.7747 25.9747 11.978C26.2588 12.1814 26.4718 12.4689 26.5837 12.8L28.2503 17.8C28.3341 18.0127 28.3731 18.2404 28.3651 18.469C28.357 18.6975 28.3021 18.9219 28.2036 19.1282C28.1051 19.3346 27.9652 19.5185 27.7926 19.6684C27.62 19.8184 27.4184 19.9312 27.2003 20Z" fill="black"/>
<defs>
<linearGradient id="paint0_linear_447_1485" x1="25" y1="19" x2="28.3811" y2="44.1092" gradientUnits="userSpaceOnUse">
<stop stop-color="#E0AA3E"/>
<stop offset="0.0989583" stop-color="#F9F295"/>
<stop offset="0.364468" stop-color="#E0AA3E"/>
<stop offset="0.65625" stop-color="#F9F295"/>
<stop offset="1" stop-color="#B88A44"/>
</linearGradient>
<linearGradient id="paint1_linear_447_1485" x1="22.5" y1="6" x2="35.584" y2="35.348" gradientUnits="userSpaceOnUse">
<stop stop-color="#E0AA3E"/>
<stop offset="0.0989583" stop-color="#F9F295"/>
<stop offset="0.364468" stop-color="#E0AA3E"/>
<stop offset="0.65625" stop-color="#F9F295"/>
<stop offset="1" stop-color="#B88A44"/>
</linearGradient>
<linearGradient id="paint2_linear_447_1485" x1="22" y1="-9.5" x2="39.367" y2="45.5655" gradientUnits="userSpaceOnUse">
<stop stop-color="#E0AA3E"/>
<stop offset="0.0989583" stop-color="#F9F295"/>
<stop offset="0.364468" stop-color="#E0AA3E"/>
<stop offset="0.65625" stop-color="#F9F295"/>
<stop offset="1" stop-color="#B88A44"/>
</linearGradient>
</defs>
</svg>
