<svg width="40" height="41" viewBox="0 0 40 41" fill="none" xmlns="http://www.w3.org/2000/svg">
<path d="M33.3333 7.66203H6.66659C5.78253 7.66203 4.93468 8.01322 4.30956 8.63834C3.68444 9.26346 3.33325 10.1113 3.33325 10.9954V30.9954C3.33325 31.8794 3.68444 32.7273 4.30956 33.3524C4.93468 33.9775 5.78253 34.3287 6.66659 34.3287H33.3333C34.2173 34.3287 35.0652 33.9775 35.6903 33.3524C36.3154 32.7273 36.6666 31.8794 36.6666 30.9954V10.9954C36.6666 10.1113 36.3154 9.26346 35.6903 8.63834C35.0652 8.01322 34.2173 7.66203 33.3333 7.66203ZM19.1666 19.3287H20.8333C21.9383 19.2182 23.042 19.5512 23.9016 20.2545C24.7611 20.9577 25.3061 21.9736 25.4166 23.0787C25.5271 24.1838 25.1941 25.2875 24.4908 26.147C23.7876 27.0066 22.7717 27.5515 21.6666 27.662C21.6666 28.1041 21.491 28.528 21.1784 28.8405C20.8659 29.1531 20.4419 29.3287 19.9999 29.3287C19.5579 29.3287 19.134 29.1531 18.8214 28.8405C18.5088 28.528 18.3333 28.1041 18.3333 27.662H16.6666C16.2246 27.662 15.8006 27.4864 15.4881 27.1739C15.1755 26.8613 14.9999 26.4374 14.9999 25.9954C14.9999 25.5533 15.1755 25.1294 15.4881 24.8169C15.8006 24.5043 16.2246 24.3287 16.6666 24.3287H20.8333C21.0543 24.3287 21.2662 24.2409 21.4225 24.0846C21.5788 23.9283 21.6666 23.7164 21.6666 23.4954C21.6666 23.2744 21.5788 23.0624 21.4225 22.9061C21.2662 22.7498 21.0543 22.662 20.8333 22.662H19.1666C18.1333 22.6631 17.1365 22.2801 16.3696 21.5876C15.6028 20.895 15.1207 19.9422 15.0168 18.9141C14.913 17.8861 15.1948 16.8561 15.8077 16.0241C16.4205 15.1922 17.3206 14.6177 18.3333 14.412V14.3287C18.3333 13.8867 18.5088 13.4627 18.8214 13.1502C19.134 12.8376 19.5579 12.662 19.9999 12.662C20.4419 12.662 20.8659 12.8376 21.1784 13.1502C21.491 13.4627 21.6666 13.8867 21.6666 14.3287H23.3333C23.7753 14.3287 24.1992 14.5043 24.5118 14.8169C24.8243 15.1294 24.9999 15.5533 24.9999 15.9954C24.9999 16.4374 24.8243 16.8613 24.5118 17.1739C24.1992 17.4864 23.7753 17.662 23.3333 17.662H19.1666C18.9456 17.662 18.7336 17.7498 18.5773 17.9061C18.421 18.0624 18.3333 18.2744 18.3333 18.4954C18.3333 18.7164 18.421 18.9283 18.5773 19.0846C18.7336 19.2409 18.9456 19.3287 19.1666 19.3287Z" fill="#232323"/>
</svg>
