<svg width="40" height="41" viewBox="0 0 40 41" fill="none" xmlns="http://www.w3.org/2000/svg">
<path d="M26.6666 7.66203H6.66659C5.78253 7.66203 4.93468 8.01322 4.30956 8.63834C3.68444 9.26346 3.33325 10.1113 3.33325 10.9954V24.3287C3.33325 25.2128 3.68444 26.0606 4.30956 26.6857C4.93468 27.3108 5.78253 27.662 6.66659 27.662H26.6666C27.5506 27.662 28.3985 27.3108 29.0236 26.6857C29.6487 26.0606 29.9999 25.2128 29.9999 24.3287V10.9954C29.9999 10.1113 29.6487 9.26346 29.0236 8.63834C28.3985 8.01322 27.5506 7.66203 26.6666 7.66203ZM16.6666 20.9954C16.0073 20.9954 15.3628 20.7999 14.8147 20.4336C14.2665 20.0673 13.8393 19.5467 13.587 18.9376C13.3347 18.3286 13.2687 17.6583 13.3973 17.0117C13.5259 16.3651 13.8434 15.7712 14.3096 15.305C14.7757 14.8388 15.3697 14.5214 16.0163 14.3927C16.6629 14.2641 17.3331 14.3301 17.9422 14.5824C18.5513 14.8347 19.0719 15.262 19.4382 15.8101C19.8044 16.3583 19.9999 17.0028 19.9999 17.662C19.9999 18.5461 19.6487 19.3939 19.0236 20.0191C18.3985 20.6442 17.5506 20.9954 16.6666 20.9954ZM36.6666 17.662V30.9954C36.6666 31.8794 36.3154 32.7273 35.6903 33.3524C35.0652 33.9775 34.2173 34.3287 33.3333 34.3287H13.3333C12.4492 34.3287 11.6013 33.9775 10.9762 33.3524C10.3511 32.7273 9.99992 31.8794 9.99992 30.9954V29.3287H26.6666C27.9927 29.3287 29.2644 28.8019 30.2021 27.8642C31.1398 26.9266 31.6666 25.6548 31.6666 24.3287V14.3287H33.3333C34.2173 14.3287 35.0652 14.6799 35.6903 15.305C36.3154 15.9301 36.6666 16.778 36.6666 17.662Z" fill="#232323"/>
</svg>
