<svg width="24" height="24" viewBox="0 0 24 24" fill="none" xmlns="http://www.w3.org/2000/svg">
<path d="M20 21H4C3.73478 21 3.48043 20.8946 3.29289 20.7071C3.10536 20.5196 3 20.2652 3 20V4C3 3.73478 3.10536 3.48043 3.29289 3.29289C3.48043 3.10536 3.73478 3 4 3H20C20.2652 3 20.5196 3.10536 20.7071 3.29289C20.8946 3.48043 21 3.73478 21 4V20C21 20.2652 20.8946 20.5196 20.7071 20.7071C20.5196 20.8946 20.2652 21 20 21Z" stroke="black" stroke-width="2" stroke-linecap="round" stroke-linejoin="round"/>
<path d="M8.82843 17.6568V6.34314M8.82843 6.34314L11.6569 9.17157M8.82843 6.34314L6 9.17157" stroke="#FFB525" stroke-width="2" stroke-linecap="round" stroke-linejoin="round"/>
<path d="M14.8283 6.34315L14.8283 17.6569M14.8283 17.6569L11.9999 14.8284M14.8283 17.6569L17.6567 14.8284" stroke="black" stroke-width="2" stroke-linecap="round" stroke-linejoin="round"/>
</svg>
