<svg width="40" height="40" viewBox="0 0 40 40" fill="none" xmlns="http://www.w3.org/2000/svg">
<path d="M20 36.6666C29.2048 36.6666 36.6667 29.2047 36.6667 19.9999C36.6667 10.7952 29.2048 3.33325 20 3.33325C10.7953 3.33325 3.33337 10.7952 3.33337 19.9999C3.33337 29.2047 10.7953 36.6666 20 36.6666Z" fill="url(#paint0_linear_955_908)"/>
<path d="M22.15 24.0334C21.8731 24.3284 21.5406 24.5657 21.1716 24.7316C20.8026 24.8975 20.4044 24.9887 20 25.0001C19.1449 24.8888 18.3486 24.5041 17.7299 23.9034C17.1112 23.3028 16.7032 22.5182 16.5667 21.6667H16.6667C17.1087 21.6667 17.5326 21.4912 17.8452 21.1786C18.1577 20.866 18.3333 20.4421 18.3333 20.0001C18.3333 19.5581 18.1577 19.1341 17.8452 18.8216C17.5326 18.509 17.1087 18.3334 16.6667 18.3334H16.5667C16.7032 17.482 17.1112 16.6974 17.7299 16.0967C18.3486 15.496 19.1449 15.1114 20 15.0001C20.4395 15.0181 20.8706 15.1266 21.2664 15.3187C21.6621 15.5109 22.014 15.7825 22.3 16.1167C22.4423 16.2939 22.6192 16.4401 22.82 16.5463C23.0208 16.6526 23.2412 16.7166 23.4677 16.7346C23.6941 16.7526 23.9219 16.7241 24.1369 16.6508C24.3519 16.5776 24.5497 16.4611 24.7181 16.3087C24.8866 16.1562 25.022 15.9709 25.1162 15.7642C25.2104 15.5574 25.2613 15.3336 25.2659 15.1065C25.2704 14.8794 25.2285 14.6537 25.1426 14.4434C25.0568 14.2331 24.9288 14.0425 24.7667 13.8834C24.1744 13.1975 23.4432 12.6452 22.6214 12.2631C21.7997 11.881 20.9062 11.6777 20 11.6667C18.2547 11.7946 16.6101 12.5327 15.3546 13.7516C14.099 14.9706 13.3127 16.5927 13.1333 18.3334C12.6913 18.3334 12.2674 18.509 11.9548 18.8216C11.6423 19.1341 11.4667 19.5581 11.4667 20.0001C11.4667 20.4421 11.6423 20.866 11.9548 21.1786C12.2674 21.4912 12.6913 21.6667 13.1333 21.6667C13.3127 23.4075 14.099 25.0295 15.3546 26.2485C16.6101 27.4675 18.2547 28.2056 20 28.3334C20.8441 28.3215 21.6776 28.1431 22.4526 27.8085C23.2277 27.4739 23.9291 26.9896 24.5167 26.3834C24.671 26.228 24.7932 26.0437 24.8763 25.8411C24.9593 25.6385 25.0017 25.4215 25.0009 25.2025C25.0002 24.9835 24.9563 24.7668 24.8717 24.5648C24.7872 24.3628 24.6637 24.1794 24.5083 24.0251C24.3529 23.8708 24.1687 23.7486 23.9661 23.6655C23.7634 23.5824 23.5464 23.54 23.3274 23.5408C23.1085 23.5416 22.8918 23.5855 22.6897 23.67C22.4877 23.7545 22.3043 23.878 22.15 24.0334Z" fill="black"/>
<defs>
<linearGradient id="paint0_linear_955_908" x1="5.49988" y1="3.99988" x2="28.9999" y2="36.9999" gradientUnits="userSpaceOnUse">
<stop stop-color="#E0AA3E"/>
<stop offset="0.0989583" stop-color="#F9F295"/>
<stop offset="0.364468" stop-color="#E0AA3E"/>
<stop offset="0.65625" stop-color="#F9F295"/>
<stop offset="1" stop-color="#B88A44"/>
</linearGradient>
</defs>
</svg>
