<svg width="40" height="40" viewBox="0 0 40 40" fill="none" xmlns="http://www.w3.org/2000/svg">
<path d="M33.3333 30.1665C34.1559 30.1718 35 30.747 35 31.5696V33.4999C35 34.3839 34.6488 35.2318 34.0237 35.8569C33.3985 36.482 32.5507 36.8332 31.6666 36.8332H8.3333C7.00721 36.8332 5.73544 36.3064 4.79776 35.3687C3.86008 34.4311 3.3333 33.1593 3.3333 31.8332V8.49988C3.30752 8.2227 3.30752 7.94372 3.3333 7.66654C3.56538 6.47142 4.21336 5.39715 5.16224 4.63438C6.11112 3.87162 7.29955 3.46967 8.51663 3.49988H26.6666C27.5507 3.49988 28.3985 3.85107 29.0237 4.47619C29.6488 5.10131 30 5.94916 30 6.83321C30 7.75369 29.2538 8.49988 28.3333 8.49988H27.5C27.0397 8.49988 26.6666 8.12678 26.6666 7.66654C26.6666 7.20631 26.2935 6.83321 25.8333 6.83321H8.51663C8.09793 6.81258 7.68498 6.9374 7.3478 7.18648C7.09168 7.37569 6.89124 7.62777 6.76439 7.9161C6.68383 8.09919 6.64706 8.3008 6.66663 8.49988C6.6666 8.89712 6.80845 9.28131 7.06663 9.58321C7.22311 9.76615 7.41736 9.91303 7.63602 10.0137C7.85468 10.1144 8.09256 10.1666 8.3333 10.1665H31.6666C32.5507 10.1665 33.3985 10.5177 34.0237 11.1429C34.6488 11.768 35 12.6158 35 13.4999V15.4301C35 16.2527 34.1559 16.828 33.3333 16.8332H28.3333C27.0072 16.8332 25.7354 17.36 24.7978 18.2977C23.8601 19.2354 23.3333 20.5071 23.3333 21.8332V25.1665C23.3333 26.4926 23.8601 27.7644 24.7978 28.7021C25.7354 29.6398 27.0072 30.1665 28.3333 30.1665H33.3333ZM35 18.9499C34.4936 18.6561 33.9187 18.5009 33.3333 18.4999H28.3333C27.4492 18.4999 26.6014 18.8511 25.9763 19.4762C25.3512 20.1013 25 20.9492 25 21.8332V25.1665C25 26.0506 25.3512 26.8984 25.9763 27.5236C26.6014 28.1487 27.4492 28.4999 28.3333 28.4999H33.3333C34.2174 28.4999 35.0652 28.1487 35.6903 27.5236C36.3154 26.8984 36.6666 26.0506 36.6666 25.1665V21.8332C36.666 21.2487 36.5117 20.6746 36.2192 20.1685C35.9267 19.6624 35.5062 19.2421 35 18.9499Z" fill="url(#paint0_linear_955_911)"/>
<defs>
<linearGradient id="paint0_linear_955_911" x1="2.98027" y1="-10.0024" x2="42.9788" y2="37.0209" gradientUnits="userSpaceOnUse">
<stop stop-color="#E0AA3E"/>
<stop offset="0.0989583" stop-color="#F9F295"/>
<stop offset="0.364468" stop-color="#E0AA3E"/>
<stop offset="0.65625" stop-color="#F9F295"/>
<stop offset="1" stop-color="#B88A44"/>
</linearGradient>
</defs>
</svg>
