<svg width="40" height="40" viewBox="0 0 40 40" fill="none" xmlns="http://www.w3.org/2000/svg">
<path d="M33.3333 31.6667H6.66667C6.22464 31.6667 5.80072 31.4911 5.48816 31.1785C5.17559 30.866 5 30.442 5 30V6.66667C5 6.22464 5.17559 5.80072 5.48816 5.48816C5.80072 5.17559 6.22464 5 6.66667 5H33.3333C33.7754 5 34.1993 5.17559 34.5118 5.48816C34.8244 5.80072 35 6.22464 35 6.66667V30C35 30.442 34.8244 30.866 34.5118 31.1785C34.1993 31.4911 33.7754 31.6667 33.3333 31.6667ZM13.3333 31.6667H10V33.3333C10 34.2538 10.7462 35 11.6667 35C12.5871 35 13.3333 34.2538 13.3333 33.3333V31.6667ZM26.6667 33.3333C26.6667 34.2538 27.4129 35 28.3333 35C29.2538 35 30 34.2538 30 33.3333V31.6667H26.6667V33.3333Z" fill="url(#paint0_linear_955_913)"/>
<path d="M24.6667 19.6667C24.6667 18.6778 24.3734 17.7111 23.824 16.8888C23.2746 16.0666 22.4937 15.4257 21.5801 15.0473C20.6665 14.6688 19.6611 14.5698 18.6912 14.7627C17.7213 14.9557 16.8304 15.4319 16.1311 16.1311C15.4319 16.8304 14.9557 17.7213 14.7627 18.6912C14.5698 19.6611 14.6688 20.6665 15.0473 21.5801C15.4257 22.4937 16.0666 23.2746 16.8888 23.824C17.7111 24.3734 18.6778 24.6667 19.6667 24.6667M24.6667 19.6667C24.6667 20.9927 24.1399 22.2645 23.2022 23.2022C22.2645 24.1399 20.9927 24.6667 19.6667 24.6667M24.6667 19.6667H26.3333M19.6667 24.6667V26.3333M19.6667 14.6667V13M14.6667 19.6667H13" stroke="#232323" stroke-width="2" stroke-linecap="round" stroke-linejoin="round"/>
<defs>
<linearGradient id="paint0_linear_955_913" x1="4.69985" y1="-7.15003" x2="40.6999" y2="35.15" gradientUnits="userSpaceOnUse">
<stop stop-color="#E0AA3E"/>
<stop offset="0.0989583" stop-color="#F9F295"/>
<stop offset="0.364468" stop-color="#E0AA3E"/>
<stop offset="0.65625" stop-color="#F9F295"/>
<stop offset="1" stop-color="#B88A44"/>
</linearGradient>
</defs>
</svg>
